<svg xmlns="http://www.w3.org/2000/svg" viewBox="0 0 1440 745"><defs><style>.a{isolation:isolate;}.b,.e{fill:blue;}.c{mix-blend-mode:darken;}.d{fill:red;}.e{stroke:blue;stroke-miterlimit:10;}.f{mix-blend-mode:multiply;}</style></defs><title>board-2</title><g class="a"><path class="b" d="M1011,136.12c14.63-9.15,24.56-21.47,34.9-32.29-11.7,3.92-28.05,11.15-37.8,20.21,1.48-13.41-1.08-31.48.4-44.89-8,11.82-8.15,30-12.84,44.19-12.6-6.52-27.5-13.16-40.09-19.69,8.69,13.26,24.64,22.61,36.78,30.72-11.87,9.9-21.32,14.44-36.57,29.51,12.14-8.1,26.51-9.78,38.65-17.88,4.23,20.87,4.34,36.85,5.15,58.45,1.41-18.34,8.56-36,10-54.34,13.62,8.47,22.48,20.58,37.53,24.07C1036.23,160.47,1024.06,146.46,1011,136.12Z"/><path class="b" d="M1011.76,137.41c13.68-8.75,24.12-20.85,35.2-32.52,1-1,0-3-1.46-2.5C1031.82,107,1017.86,113.21,1007,123l2.56,1.06c1.47-14.94-1.07-29.95.4-44.89.16-1.57-2-1.9-2.79-.75-8.53,13.24-8.35,29.89-13,44.54l2.2-.89c-13.24-6.82-26.84-12.88-40.08-19.69-1.24-.64-3,.73-2.06,2,9.31,13.71,23.8,22.27,37.32,31.25l-.3-2.35c-12.15,10-25.25,18.43-36.57,29.51-1.2,1.17.36,3.29,1.82,2.35,12.06-7.74,26.58-10.13,38.65-17.87l-2.2-.9c3.8,19.19,4.37,38.56,5.09,58a1.5,1.5,0,0,0,3,0c1.6-18.43,8.36-35.91,10-54.34l-2.26,1.29c12.71,8.12,22.8,20.38,37.89,24.23a1.52,1.52,0,0,0,1.46-2.51c-10.87-13.71-22.38-27.07-36.07-38.06-1.49-1.2-3.63.91-2.12,2.12,13.69,11,25.2,24.35,36.07,38.06l1.46-2.51c-14.75-3.76-24.73-16-37.17-23.92a1.52,1.52,0,0,0-2.26,1.3c-1.6,18.42-8.36,35.91-10,54.34h3c-.73-19.76-1.34-39.39-5.2-58.85a1.51,1.51,0,0,0-2.21-.89c-12.06,7.74-26.58,10.13-38.65,17.87l1.82,2.36c11.31-11.07,24.43-19.49,36.57-29.51a1.52,1.52,0,0,0-.3-2.36c-13.07-8.68-27.25-16.92-36.25-30.17l-2.05,2c13.24,6.81,26.85,12.87,40.09,19.69a1.52,1.52,0,0,0,2.2-.9c4.56-14.39,4.34-30.84,12.7-43.83l-2.8-.76c-1.47,14.94,1.07,29.95-.4,44.89-.14,1.39,1.68,1.85,2.56,1.06,10.43-9.41,24-15.34,37.13-19.82l-1.45-2.51c-10.9,11.48-21.13,23.44-34.6,32.05C1008.62,135.86,1010.12,138.46,1011.76,137.41Z"/><g class="c"><path class="d" d="M997.07,101.56c-11.7,10.43-24,26.42-21.83,43.07,1.73,13.44,12.61,25.81,27,24,15.62-2,29.34-18.86,32.86-33.41s-5.33-29.09-18.41-35.57c-28.55-14.14-56.75,18.85-46.85,46.44,5.09,14.17,18.51,25.12,33.86,25.14a33.54,33.54,0,0,0,33-26.1c2-8.61,1.09-17.7-.92-26.22-1.59-6.74-3.68-18.71-10.68-22.1-4-1.92-8.6-.8-12.71-.07-5.58,1-11.14,2.15-16.64,3.52a190,190,0,0,0-32.29,11.26c-1.76.79-.24,3.38,1.51,2.59a197.72,197.72,0,0,1,44.66-13.82c4.14-.79,8.59-2.1,12.75-1.05,4.89,1.24,6.23,6.53,7.7,10.83a83.68,83.68,0,0,1,4.5,19.87c1.23,14.09-3.37,28.63-16.88,35.12-13.35,6.41-28.86,2.51-38.41-8.53a34.67,34.67,0,0,1-5.43-36.85c5-11.42,16-20.77,28.92-20.53,13.28.23,26.33,10.46,29.46,23.43,3.52,14.6-7.6,30.7-19.22,38.57-6.74,4.58-15.53,6.52-22.93,2.27-6.41-3.68-10.44-10.67-11.74-17.83-2.92-16.1,9.55-31.86,20.79-41.88,1.45-1.29-.68-3.41-2.12-2.12Z"/></g><path class="d" d="M1183.37,243.15c-14.92-14.28-26.57-31.91-36.87-49.81-9.64-16.75-18.59-34.69-19.49-54-.78-16.89,6.13-35.06,19.79-44.38a35.77,35.77,0,0,1,6.27-3.42c19-8,41.6,1.63,55.62,16.78,27.68,29.9,28.5,79.91,4.18,112.61-6,8-11.24,14.62-18.73,18.64A34.22,34.22,0,0,1,1183.37,243.15Z"/><path class="d" d="M1184.43,242.09c-19.93-19.33-35.94-44.58-47.26-69.87-10.31-23-14.29-53.68,6.27-72.67,20.78-19.18,51.35-5.89,67,13,14.83,17.94,20.46,42.31,17.74,65.18a89.88,89.88,0,0,1-12.61,36.54c-7.71,12.45-17.51,24.58-32.59,27.4-1.9.36-1.09,3.25.8,2.89,13.8-2.58,22.41-12,30.39-22.91A90.65,90.65,0,0,0,1229.44,188c5.4-24,1.72-50.39-12-71-13.27-19.85-39.68-36.78-64-27.16-25.52,10.08-31.52,41.51-25.42,65.42,4.24,16.64,12.94,31.92,21.76,46.51,9.25,15.32,19.71,30,32.6,42.46C1183.69,245.55,1185.82,243.43,1184.43,242.09Z"/><path class="e" d="M1409.75,541.2a163.66,163.66,0,0,1-12.57-10.5c-25.18-23-54.21-42.57-83.78-59.53-27.94-16-57.53-30.57-89.46-34.78-77-10.14-144.72,50.78-222.31,52.78-29.41.76-63.76-15.58-93.11-13.57-69.57,4.78-132,62-142.78,130.93C758.1,655.34,775,704.24,805,744.13l635,.26V579.59C1440,565.62,1419.94,548.83,1409.75,541.2Z"/><path class="d" d="M1294.73,573.13c-28.34-29.82-50.76-65.94-67.52-103.39-8.52-19-15.59-38.88-19.88-59.33-4.34-20.75-4.5-41.54-2.26-62.58,10.56-99.1,69.15-184.3,93.67-279.59,13.22-51.42,17.11-106.54-2.42-156.91-.69-1.78-3.59-1-2.89.8,37.24,96.08-9,197.43-46.07,285.72-19,45.32-37.4,91.72-44.15,140.73-2.85,20.62-3.88,41.58-.67,62.22,3.12,20.11,9.32,39.71,17,58.53,17.15,42.13,41.66,82.85,73.09,115.92,1.33,1.41,3.45-.72,2.12-2.12Z"/><g class="c"><path class="d" d="M570.63,743.13c13.74-32,33.48-61.08,59.1-84.76,62.71-58,127.26-132,209.25-108.18,82.5,24,47.38,106.29,69,134.65,26.79,35.16,82.88,38.83,99,58.29Z"/><path class="d" d="M571.93,743.89c11.08-25.56,25.89-49.46,44.65-70.11,8.72-9.61,18.43-18.22,27.85-27.13,9.18-8.69,18.31-17.44,27.58-26,34.61-32.09,75.08-67.9,124.14-72.93,22.42-2.3,46.71,2.19,66,14.15,14.9,9.24,24.8,23.44,29.61,40.17,4.17,14.46,4.83,29.56,5.78,44.48.73,11.59,1.12,24.34,6.51,34.9,4.17,8.17,11.78,14.81,19,20.19,9.37,7,19.9,12.16,30.61,16.71,9.95,4.23,20.17,7.81,30.11,12.05,7.92,3.37,16.41,7.19,22.13,13.86l1.06-2.56H588.57c-5.48,0-11.74-.85-17.17,0a5,5,0,0,1-.77,0,1.5,1.5,0,0,0,0,3H989.06c5.48,0,11.74.85,17.17,0a5,5,0,0,1,.77,0,1.52,1.52,0,0,0,1.06-2.56c-10.54-12.31-29.37-17-43.86-22.72-20.05-7.92-42.35-17.6-55.29-35.76-7.25-10.17-7.54-24.26-8.31-36.24-1-14.85-1.57-29.88-5.43-44.33-4.13-15.45-12.27-29.37-25-39.26-17.1-13.28-40.09-19.4-61.49-19.65-48-.56-89.25,30.28-123.58,60.6-11.07,9.77-21.8,19.9-32.5,30.06s-22,20.13-32.37,30.77c-21.64,22.15-38.59,48.47-50.88,76.83C568.58,744.13,571.16,745.66,571.93,743.89Z"/></g><g class="c"><path class="d" d="M1440-92.08C1395.34-6.76,1357.59,82,1328.36,173.76c-2.87,9-5.71,18-8.41,27-16.78,55.92-28.35,116.76-9.42,172,19.2,56,71.46,98.59,129.47,108.9Z"/><path class="d" d="M1438.7-92.83c-44.21,84.56-81.79,172.62-110.93,263.52-14.18,44.2-27.8,89.49-28.48,136.3-.6,41.19,10.32,81.48,36.29,113.91a174.75,174.75,0,0,0,104,62.2,1.53,1.53,0,0,0,1.9-1.45V-68.56c0-7.37.73-15.17,0-22.51,0-.33,0-.68,0-1a1.5,1.5,0,0,0-3,0v565c0,2.21-.66,5.64,0,7.76a3.79,3.79,0,0,1,0,1l1.9-1.45a172,172,0,0,1-95.07-52.55c-28.29-30.7-42-70.15-43-111.61-1.12-46.11,11.42-91.12,25.19-134.68q20.91-66.18,47.27-130.42c20-48.42,42.24-95.86,66.51-142.26C1442.19-93,1439.6-94.55,1438.7-92.83Z"/></g><g class="c"><path class="d" d="M1278.27,333.93c-32.76-18.54-73.83,3.67-76,41.26-2,34.84,6.69,70.69,23.67,101.37,27,48.67,72.6,85.14,123,108.78a141.07,141.07,0,0,0,63,13.12,92.15,92.15,0,0,0,83.71-60.06c12.91-35.08,5.32-76.12-16.53-106.45s-56.71-50.09-93.46-56.95c-23.77-4.44-49.16-4.06-70.45-15.51-13-7-23.54-18-36.39-25.28C1278.61,334.11,1278.44,334,1278.27,333.93Z"/><path class="d" d="M1279,332.63a53.18,53.18,0,0,0-62.32,7.85c-20.69,19.72-17.86,51.24-13.27,77,11.1,62.44,53.31,113.39,105.41,147.32,26.89,17.51,56.22,32.24,88.66,34.78,27.88,2.17,55-5.54,75.69-24.86,45-42,35.81-114.91-4-157-20.17-21.33-47.15-35.82-75.6-42.57-16.37-3.88-33.24-4.65-49.74-7.77a101,101,0,0,1-24.92-7.65c-7.67-3.68-14.46-8.79-21.17-14-6.06-4.67-12.11-9.36-18.78-13.15a1.5,1.5,0,0,0-1.51,2.59c13,7.41,23.64,18.46,36.88,25.56,12.89,6.91,27.38,9.62,41.73,11.57,15.15,2,30.29,3.59,45,7.92A155.38,155.38,0,0,1,1440.48,398c24.84,15.75,44.52,39,53.84,67.11,9.16,27.58,8.5,59.19-5.71,85a91.4,91.4,0,0,1-62.09,45.28c-31.44,6.13-63.35-3.79-90.94-18.36-51.29-27.07-97.5-69-119-123.91a190.18,190.18,0,0,1-11.77-46.45c-1.7-14-3.12-30.11,1.26-43.79,7.18-22.45,30.63-36.89,53.91-33.62a51.3,51.3,0,0,1,17.52,6C1279.21,336.15,1280.73,333.56,1279,332.63Z"/></g><g class="c"><path class="b" d="M261,594.38c-69.73,58.9-183,235.2-183,235.2S152.71,877,184.31,887.19C248.2,907.77,303.75,897,357.69,873.9c85.49-36.55,135.51-137.66,119.45-229.23-6-34-21.37-68.35-50.25-87.3-25-16.42-57.51-19.08-86.41-11.29S282.48,573.58,261,594.38Z"/><path class="b" d="M259.9,593.32c-16.41,13.91-31,29.92-45,46.18-16.4,19-31.95,38.79-47.08,58.83-26.55,35.15-51.84,71.26-76.28,107.9-5,7.5-10,15-14.87,22.6a1.52,1.52,0,0,0,.54,2c12,7.58,24.1,14.89,36.31,22,19.87,11.65,40.06,23.39,61.35,32.28,61.29,25.6,132.94,14.77,191.27-13.5,50.82-24.63,88-72.4,105-125.68A217,217,0,0,0,481,662.72c-2.4-29.39-10.89-59.6-28.83-83.41-19.12-25.4-48.42-38.89-80-38.92-34.3,0-66,15.5-92.66,36.08a240.59,240.59,0,0,0-19.52,16.85c-1.4,1.34.72,3.46,2.12,2.12,24.36-23.37,54.73-43.82,88.43-50.08,32.33-6,67,1.65,90.5,25.52,21.15,21.49,31.78,51.73,35.83,81.11a210.56,210.56,0,0,1-5.43,82.48c-14.05,52.9-47.83,101.35-95.7,128.8-27.09,15.53-58.82,25.79-89.6,30.65a216.06,216.06,0,0,1-102.43-8.54c-20.11-6.79-39-18-57.38-28.53q-22.8-13-45-27l-2.51-1.58.53,2.05c13.63-21.19,27.81-42,42.19-62.71,28.48-41,57.94-81.51,90.17-119.67,15.64-18.51,31.94-36.82,50.45-52.52C263.49,594.19,261.36,592.07,259.9,593.32Z"/></g><g class="c"><path class="d" d="M137.13,59.14a86.81,86.81,0,0,1-12.75-48.73c.1-2.45.39-5.1,2.07-6.89,1.87-2,4.89-2.33,7.63-2.52L573,1.27c21.67,7.59,47.3,24.29,45.09,47.15-2,20.72-27.54,31.28-48.1,28S531.37,61.06,511.42,55.1C463.9,40.93,407.8,67.81,389.07,113.72,381.48,132.33,379,154,365,168.41c-22.35,23-60.9,15.31-89.86,1.58-12-5.67-24.32-12.88-29.85-24.91s-.08-29.63,13-31.76c10.14-1.66,19.42,6.34,24.75,15.13,16.14,26.6,7.65,65.21-18.14,82.6-9.25,6.23-20.1,9.84-31.12,11.57-39.73,6.24-82.32-13.64-103-48.1s-18.36-81.4,5.77-113.59"/><path class="d" d="M138.43,58.38a87.4,87.4,0,0,1-10.81-27.2,83.12,83.12,0,0,1-1.74-14,51.59,51.59,0,0,1,0-6.81c.14-1.41.21-3.75,1-5,1.62-2.43,4.62-2.79,7.19-2.94,1,0,2,0,3,0l23,0,94.82.06,127,.08,117.73.07,68.43,0a30.59,30.59,0,0,1,4.69,0c4,.68,8.5,3.34,12.16,5.16a80.59,80.59,0,0,1,19.49,13.18c11.43,10.81,17.4,28,6,41.18-9.69,11.19-26.8,14.89-40.9,12.54-18.67-3.12-35.07-13.39-52.74-19.56a97.22,97.22,0,0,0-43.56-4.76C445,53.85,418.05,68.54,400.55,91c-9.36,12-14.5,25.6-19,40-5.18,16.72-11.07,34.25-27.05,43.61-13.75,8-30.72,8-45.93,5-16.12-3.17-32.55-9.42-46.32-18.45-7.24-4.74-14.42-11.39-16.83-20-2-7.2-.59-16.07,4.53-21.71,6.48-7.12,16.29-5.63,23.29-.08,6.73,5.34,11.14,13.3,13.69,21.4a63.55,63.55,0,0,1-3,44.77c-7.19,15.86-20.4,26.93-36.91,32.27-32.27,10.46-69.09,1.35-94.68-20.36-26.23-22.26-38.2-56.92-33.13-90.79a101.09,101.09,0,0,1,18.5-45.09c1.15-1.55-1.45-3-2.59-1.51-20.41,27.7-25.57,65.43-13.95,97.77,11.2,31.16,38.15,54.49,69.8,63.39,31.35,8.82,71.6,3.6,90.77-25.48a67.47,67.47,0,0,0,10.69-42.44c-1.23-14.26-7.38-30.13-19.9-38.15-12.06-7.74-25.84-1.88-29.8,11.53-4.43,15,4.8,28,16.74,36.21,13.72,9.43,30.64,15.93,46.88,19.33,14.79,3.08,30.85,3.58,44.92-2.65,15.59-6.9,24.15-21.13,29.58-36.65,5.83-16.7,9.78-33.5,20.41-48,19.44-26.56,52.56-42.77,85.43-42.18,19.73.35,36.78,8.26,54.59,15.92,15.29,6.58,31.39,12.18,48.14,8.43,12.53-2.81,25.35-10.62,29.15-23.59,4.12-14.05-3.72-27.47-14.09-36.45a88.23,88.23,0,0,0-20-12.72c-3.45-1.64-7.9-4.18-11.71-4.65a43.55,43.55,0,0,0-5,0L539-.25,428.57-.32,290.88-.4,175.77-.47l-32.87,0c-7.3,0-18-1.48-19.73,7.93-1.6,8.56.1,18.66,2.11,27A90.3,90.3,0,0,0,135.84,59.9a1.5,1.5,0,0,0,2.59-1.52Z"/></g><g class="c"><path class="b" d="M530.83,799.84c-2.52-110.44,21.76-226,97.49-310.22a298.08,298.08,0,0,1,56.08-48.85c22.83-15.21,47.81-26.32,73.77-35,51.46-17.25,106.71-26,154.52-52.82,43.53-24.42,83.32-64.84,86.13-117.24.1-1.93-2.9-1.92-3,0-2.65,49.45-39.45,88.05-80.1,112C867.94,375.93,812,384.85,759.92,402c-25.11,8.27-49.48,18.61-71.86,32.81A296.82,296.82,0,0,0,632,481.24c-34.52,36.38-60.13,80.48-76.87,127.64-21.67,61.07-28.75,126.44-27.28,191,0,1.93,3,1.94,3,0Z"/></g><g class="c"><path class="b" d="M1478.6,380.65c-38.75-7.65-78.71-4.12-118.1-1.13s-79.59,5.34-117.84-4.54-74.82-34-89.87-70.56-2-85.18,33.77-101.85c9.71-4.52,20.53-6.64,29.63-12.29,16.87-10.5,24.53-30.94,28.79-50.35s6.52-39.91,17-56.8,32.71-28.78,50.52-19.94c16.67,8.26,21.52,30,19.92,48.55s-7.62,37-4.78,55.4c4.39,28.33,33.08,49.43,61.18,48.84a27.34,27.34,0,0,1,25.74,16.45Z"/></g><g class="c"><path class="d" d="M1144.35,366c-15.94,21.63-29.25,45.08-36.59,70.93-6.84,24.11-12.73,48.24-11.63,73.13,2.47,55.69,39.06,103.17,73.26,147.19s69.22,93.4,67.68,149.13c-.5,18.08-4.61,37.64,4.17,53.33a35,35,0,0,0,56.23,7c10.51-11,11.8-26.89,9.75-41.39-5.21-36.76-29.13-67.64-50.81-97.78s-42.72-64.2-40.73-101.27c1.82-34.1,23-64.48,27.42-98.34,1.56-11.78.86-24.43-5.47-34.49s-19.48-16.44-30.54-12.12-15.71,21.2-6.62,28.85c11,9.21,27.68-1.43,35.19-13.62A82.8,82.8,0,0,0,1246,436.31c-3.84-17.66-13.37-33.49-19.56-50.47-14.76-40.48-9.94-85.2-16.19-127.84-1-6.56-2.28-13.31-6-18.77-3.33-4.8-8.32-8.22-13.57-10.8-29.48-14.52-69.45-1.22-84.37,28.06-5.13,10.08-7.39,22.44-2.53,32.64,3.45,7.24,9.94,12.44,15.7,18a116.91,116.91,0,0,1,21.75,28.92c4.42,8.32,7.87,18.15,4.74,27A10.82,10.82,0,0,1,1144.35,366Z"/><path class="d" d="M1143.06,365.27c-18.1,24.68-31.36,51-39.32,80.55s-12.5,59.72-5.58,90c13.09,57.34,55.59,101.19,88.95,147.47,17.21,23.88,33.14,49.44,41.89,77.74a141.54,141.54,0,0,1,6.61,43.7c-.2,13.91-2.85,28-.46,41.83,3.7,21.41,23.47,37.11,45.38,31.79a37.31,37.31,0,0,0,24.32-19.54c5.28-10.69,5.41-23.07,3.69-34.63-9-60.07-63-99.42-83.88-154.44-5.24-13.84-8.28-28.55-7.48-43.38s5.46-29.36,10.6-43.32c9.09-24.69,23.7-54.34,15.29-81.17-3.42-10.9-11.77-20.25-23.24-22.74-9.64-2.1-19.32,1.82-23.58,10.92-3.42,7.31-2.85,16.78,4,21.91,8.53,6.4,19.54,2.25,27-3.73,9.88-7.86,15.58-20.16,18.89-32.1a84.27,84.27,0,0,0,1-41.05c-3.33-14.61-10.44-27.94-16.21-41.66A178.69,178.69,0,0,1,1218.88,347c-4-30.74-2.39-62.09-7.75-92.67-2.4-13.67-9.4-22.71-22.17-28.28a62.51,62.51,0,0,0-31.34-4.66c-21.17,2.18-41.86,14.17-52.09,33.2-5.59,10.39-8.44,23.41-3.47,34.58,2.69,6,7.42,10.72,12.16,15.19A138.34,138.34,0,0,1,1129.67,321c8.27,10.84,22,30.45,13.39,44.28-1,1.64,1.57,3.15,2.59,1.51,6.43-10.32,1.24-23.38-4.05-33-6.46-11.74-14.95-21.85-24.67-31-4.53-4.27-9.27-8.66-12-14.39-3.29-7-3-15.09-.92-22.4,3.29-11.57,11-21.64,20.55-28.77,17.06-12.69,40.7-17.08,60.77-9.42,5.76,2.19,11.6,5.37,15.73,10,5.07,5.7,6.56,13.29,7.65,20.6,2.22,14.94,3,30.07,3.76,45.14,1.46,27.83,2.79,56.26,12.43,82.7,4.79,13.17,11.57,25.52,16.19,38.75a84.42,84.42,0,0,1,4.13,41.22c-2.07,13-7.17,27.51-16.76,36.93-7.4,7.27-23.92,15.08-30.1,2-5.44-11.48,5.17-24,16.88-23.62,14.06.52,23.53,13,26.07,25.79,5.33,27-9.44,54.94-18.2,79.66-4.13,11.67-7.63,23.64-8.74,36a102.84,102.84,0,0,0,4.34,38.7c15.7,52.12,61,88,80.22,138.33,8.48,22.25,14.79,56.2-9.35,71.26-21.06,13.13-46.56-.78-51.29-24-2.75-13.46-.13-27.38.23-40.92a139.82,139.82,0,0,0-4-36.62c-6.14-25.28-18.48-48.66-32.63-70.31-29.3-44.81-68.42-83.47-90.26-133-11.34-25.72-16.32-53.06-13-81.08,3.42-29,11.81-58.9,25.49-84.76a273.76,273.76,0,0,1,21.52-33.88C1146.79,365.22,1144.19,363.72,1143.06,365.27Z"/></g><g class="c"><path class="d" d="M379,894.58c24.55-10.9,47.73-24.7,66.89-43.53,17.88-17.56,34.94-35.62,46.3-57.79,25.42-49.62,17.12-109,9.18-164.16s-13.93-115.41,15-163.07c9.39-15.48,22.64-30.43,22.77-48.42a35,35,0,0,0-45.37-33.95c-14.6,4.39-23.56,17.53-28.95,31.15-13.66,34.52-8.16,73.19-4.24,110.11s5.35,76.93-14.72,108.16C427.4,661.81,394,677.74,373.36,705c-7.17,9.47-12.83,20.82-12.31,32.69s8.79,23.93,20.54,25.65,24.15-10.66,20-21.8c-5-13.43-24.76-12.46-37.32-5.58a82.74,82.74,0,0,0-38.78,47.32c-5.41,17.24-5,35.71-8,53.53-7.2,42.48-33.52,79-49.19,119.1-2.41,6.18-4.61,12.7-4,19.31.52,5.82,3.16,11.26,6.44,16.1,18.44,27.2,59.76,35.43,87.21,17.36,9.44-6.21,17.53-15.83,18.35-27.11.58-8-2.49-15.73-4.72-23.42A116.5,116.5,0,0,1,367,922.2c.27-9.42,2.14-19.66,9.26-25.84A11.06,11.06,0,0,1,379,894.58Z"/><path class="d" d="M379.77,895.88c27.33-12.22,51.63-28.08,72.78-49.3C473.3,825.76,492,803,501.61,774.82c19.54-57.54,3.46-119-2.77-177.28-3.13-29.22-4.31-59.28,2.1-88.16a141.45,141.45,0,0,1,15.47-40.46c6.93-11.95,16.1-22.73,21.09-35.74,8.19-21.31-1.86-46.42-25.27-51.67-25.88-5.8-43.26,16-50.71,37.94C441.61,478,471.14,539.79,458,599.22c-3.24,14.59-9.22,28.43-18.46,40.23-8.16,10.42-18.23,19.16-28.36,27.6-19.45,16.21-45.26,34.55-50.75,61-2.33,11.22.44,23.54,9.37,31.24,7.69,6.64,18.26,7.53,26.42,1.19,7.54-5.86,10.6-16.66,4-24.41-6.07-7.11-16.73-7.45-25.21-5.65-23.3,5-42.26,28.05-49.91,49.52-5.23,14.66-5.79,30.38-7.49,45.7a178.86,178.86,0,0,1-11.67,46c-11.11,28.17-27.16,54.08-38.35,82.22-2.69,6.75-5.33,13.92-4.72,21.31.52,6.12,3.25,11.83,6.65,16.86a61.79,61.79,0,0,0,24.65,20.86c19.45,9.26,43.6,9.54,62.38-1.57,9.75-5.78,18.72-15,20.89-26.5,1.28-6.78-.25-13.51-2.18-20-2.58-8.74-5-17.29-6-26.39-1.48-12.95-3.09-35.15,10.6-42.55,1.7-.92.19-3.51-1.51-2.6-9.66,5.23-12.21,17.34-12.71,27.43-.72,14.77,1.95,29.07,6.22,43.12,2.28,7.52,4.35,15.24,2,23-1.9,6.37-6.09,11.84-11,16.2-8.72,7.75-20.11,12.2-31.65,13.38-21.86,2.23-45.37-6.7-58.35-24.84-3.84-5.36-6.92-11.51-7.08-18.22-.19-8.54,3.9-17,7.18-24.74,5.33-12.48,11.49-24.59,17.58-36.72,12-23.83,24-48.23,28.5-74.75,2.51-14.76,2.6-29.85,5.66-44.52a82.57,82.57,0,0,1,17.29-36.31c7.66-9.19,18-18.12,29.55-21.88,9.29-3,24.54-3.86,28.69,7.44,2.12,5.77-.67,11.81-5.09,15.62a17,17,0,0,1-20.26,1.77c-12.15-7.23-14.33-22.87-10.22-35.31,8.07-24.42,32.22-41,51-56.77s35-33.21,42.53-57.07c16.87-53.2-5.34-108.54.41-162.59,2.54-23.85,11.9-58.49,39.73-63.42a33.79,33.79,0,0,1,31.35,11.23c8.53,10,9.77,23.49,5.51,35.57-4.44,12.58-13.24,23.07-20.07,34.35a139.4,139.4,0,0,0-14.86,34.67c-7.05,25.1-7.8,51.57-6.14,77.44,3.48,54.14,18.64,107.88,12.21,162.41-3.41,28.89-14,55.48-32.05,78.36-17.16,21.77-37.73,42-61.23,56.8a276.18,276.18,0,0,1-34.75,18.33C376.5,894.07,378,896.66,379.77,895.88Z"/></g><g class="c"><path class="b" d="M176.52,440.3c-6.28,1.77-1.84-16.49-9.36-20.88-5.63-3.29-12.44-3.72-18.76-5.35-21.25-5.48-39-20.65-51.85-38.41-17-23.4-26-57.28-8.76-80.46,7-9.34,21.42-15.52,30-7.63,8.1,7.46,4.22,21.49-3.53,29.31-14.19,14.32-38.21,16.33-56,6.91s-29.36-28.57-32.35-48.51,1.81-40.48,10.52-58.66c20.1-42,61.25-76,63.31-122.49.87-19.51-5.55-38.5-8.63-57.78s-2.08-41,11-55.52,41.31-14.89,49.27,2.93c6.72,15.07-5.67,33.62-21.66,37.69S96.68,18.37,84,7.86C64.52-8.23,52-32.19,62.61-59.08,66-67.62,74.3-78.2,81.67-83.67c10.88-8.07,25.57-10.39,39.08-9.32,13,1,24.43,10,30.95,21.24s8.68,24.56,8.91,37.58c.79,43-18,85.22-13.39,128,2.27,21.11,10.18,41.25,20,60.07a305.11,305.11,0,0,0,43.07,62.28c11,12.28,23,23.78,31.77,37.75,12.49,20,17.41,44.2,16.15,67.75C258.2,321.69,258,417.35,176.52,440.3Z"/><path class="b" d="M176.12,438.86c-2.27.42-2.63-9.4-3-11.09-.62-3.39-1.69-7-4.54-9.16-5.19-4-12.91-4.3-19-5.79a74.6,74.6,0,0,1-19.79-8.1c-23.88-13.91-43.17-39.57-48.52-66.82-2.63-13.38-1.5-27.86,6.1-39.51,3.82-5.85,9.56-10.72,16.48-12.38,7.41-1.78,15,1.61,16.62,9.49,3,14.68-11.89,26.57-24.21,30.4A49.64,49.64,0,0,1,57,321.42c-26.63-15.52-34.51-49-28.51-77.48,5.88-27.83,23-50.87,39-73.68,14.42-20.5,29.2-42.33,32.85-67.7,4.36-30.31-11-58.82-9.1-89C92.1.37,96.62-14.5,108-22.4c8.82-6.12,21.43-8,31.36-3.55,12.21,5.48,15.17,19.48,9,30.77-7.31,13.41-22.39,18.4-36.85,15.35-27.12-5.71-52.59-33.51-51.23-62C61-56.61,68.6-70.19,79.53-80,90.76-90,107.37-93.21,122-91.33c15.38,2,26.85,14.51,32.18,28.38,5.68,14.77,5.6,31.37,4.19,46.91C155.55,15.4,145.47,45.9,145,77.6c-.46,31.24,11.14,60.38,26.4,87.14a309.71,309.71,0,0,0,24.79,36.94c9.63,12.33,20.61,23.39,30.92,35.14,10.67,12.16,19.28,25.41,24.22,40.92,4.55,14.28,5.88,29.05,5.36,44a150.32,150.32,0,0,1-1.94,19.4c-5.46,32.89-20.82,65.52-49.29,84.42a105.93,105.93,0,0,1-29.35,13.33,1.5,1.5,0,0,0,.8,2.89c21.67-6.24,40.72-18.64,54.56-36.53,11.2-14.48,18.69-31.58,23.21-49.25,8.77-34.22,7.57-73.08-11.82-103.53-9.27-14.55-22-26.41-33.28-39.29A302.46,302.46,0,0,1,178,170.08c-9.55-15.77-18-32.45-23.63-50.06a139.1,139.1,0,0,1-5.8-54.13c3-35.73,15.93-70.69,13.2-106.87C160.69-55.77,156.47-70.9,146-81.85c-10.24-10.66-23.46-13.9-37.87-12.6-14.83,1.35-27.47,7.53-37,19-9.14,11-14.58,24.46-13.74,38.9C59-8.65,84.45,18,111.53,23.23c13.36,2.57,27-.89,35.84-11.61,7.12-8.64,10.06-21.1,3.93-31.1-11.86-19.37-41.82-12.94-53.35,3C78.68,10.24,92.48,45,96.88,73.92c2.58,16.94,1.09,33.36-5.21,49.32-5.45,13.84-13.58,26.48-22,38.68-17.49,25.4-37.54,50.32-44.06,81.23-6,28.51,1.16,61.06,26.17,78.49,20.42,14.24,57,13.34,69.16-11.75,4.54-9.39,3.86-22.92-7.7-26.64S89.7,288.7,84,298.12c-15,24.83-4.14,57.34,11.7,78.93,8.66,11.79,19.28,22.36,31.9,29.87a78.38,78.38,0,0,0,20.39,8.6c6.72,1.72,18.44,1.63,21.3,9.21,1.56,4.1.22,18.4,7.61,17C178.81,441.39,178,438.5,176.12,438.86Z"/></g><g class="c"><path class="b" d="M605.47,1196.3c-6.27,1.77-1.83-16.49-9.35-20.88-5.63-3.29-12.45-3.72-18.76-5.35-21.25-5.48-39-20.65-51.85-38.41-17-23.4-26.05-57.28-8.76-80.46,7-9.34,21.41-15.52,30-7.63,8.09,7.46,4.21,21.49-3.53,29.31-14.2,14.32-38.22,16.33-56.05,6.91s-29.35-28.57-32.34-48.51,1.81-40.48,10.52-58.66c20.1-42,61.25-76,63.31-122.49.86-19.51-5.56-38.5-8.63-57.78s-2.08-41,11-55.52,41.32-14.89,49.27,2.93c6.73,15.07-5.66,33.62-21.66,37.69s-33-3.08-45.7-13.59c-19.45-16.09-31.95-40.05-21.36-66.94,3.37-8.54,11.69-19.12,19.07-24.59,10.88-8.07,25.57-10.39,39.08-9.32,13,1,24.42,10,30.94,21.24s8.68,24.56,8.92,37.58c.79,43-18,85.22-13.4,128,2.27,21.11,10.19,41.25,20,60.07a305.11,305.11,0,0,0,43.07,62.28c11,12.28,23,23.78,31.76,37.75,12.5,20,17.41,44.2,16.15,67.75C687.15,1077.69,687,1173.35,605.47,1196.3Z"/><path class="b" d="M605.07,1194.86c-2.27.42-2.63-9.4-2.94-11.09-.62-3.39-1.7-7-4.54-9.16-5.2-4-12.91-4.3-19-5.79a74.53,74.53,0,0,1-19.78-8.1c-23.88-13.91-43.17-39.57-48.52-66.82-2.63-13.38-1.5-27.86,6.1-39.51,3.81-5.85,9.56-10.72,16.47-12.38,7.42-1.78,15,1.61,16.62,9.49,3,14.68-11.88,26.57-24.2,30.4a49.67,49.67,0,0,1-39.26-4.48c-26.63-15.52-34.51-49-28.5-77.48,5.87-27.83,23-50.87,39-73.68,14.42-20.5,29.21-42.33,32.86-67.7,4.36-30.31-11-58.82-9.11-89,.84-13.19,5.36-28.06,16.74-36,8.81-6.12,21.43-8,31.35-3.55,12.22,5.48,15.18,19.48,9,30.77-7.31,13.41-22.39,18.4-36.85,15.35-27.13-5.71-52.6-33.51-51.24-62,.71-14.8,8.31-28.38,19.24-38.16,11.22-10,27.84-13.24,42.5-11.36,15.38,2,26.85,14.51,32.18,28.38,5.67,14.77,5.6,31.37,4.19,46.91-2.85,31.44-12.93,61.94-13.4,93.64-.46,31.24,11.15,60.38,26.41,87.14a308.51,308.51,0,0,0,24.79,36.94c9.63,12.33,20.61,23.39,30.91,35.14,10.68,12.16,19.29,25.41,24.23,40.92,4.54,14.28,5.88,29,5.35,44a150.31,150.31,0,0,1-1.93,19.4c-5.47,32.89-20.82,65.52-49.29,84.42a106,106,0,0,1-29.36,13.33,1.5,1.5,0,0,0,.8,2.89c21.68-6.24,40.73-18.64,54.56-36.53,11.2-14.48,18.69-31.58,23.22-49.25,8.77-34.22,7.56-73.08-11.82-103.53-9.27-14.55-22-26.41-33.29-39.29A303.24,303.24,0,0,1,607,926.08c-9.54-15.77-18-32.45-23.63-50.06a139.09,139.09,0,0,1-5.79-54.13c3-35.73,15.93-70.69,13.2-106.87-1.12-14.79-5.34-29.92-15.84-40.87-10.24-10.66-23.46-13.9-37.87-12.6-14.84,1.35-27.47,7.53-37,19-9.14,11-14.58,24.46-13.74,38.9,1.62,27.89,27.11,54.55,54.2,59.77,13.36,2.57,27-.89,35.84-11.61,7.12-8.64,10-21.1,3.93-31.1-11.86-19.37-41.83-12.94-53.35,3-19.28,26.7-5.48,61.46-1.07,90.38,2.57,16.94,1.08,33.36-5.21,49.32-5.46,13.84-13.58,26.48-22,38.68-17.5,25.4-37.54,50.32-44.06,81.23-6,28.51,1.16,61.06,26.17,78.49,20.42,14.24,57,13.34,69.15-11.75,4.55-9.39,3.87-22.92-7.69-26.64s-23.56,5.45-29.24,14.87c-15,24.83-4.14,57.34,11.7,78.93,8.65,11.79,19.28,22.36,31.9,29.87a78.17,78.17,0,0,0,20.38,8.6c6.72,1.72,18.44,1.63,21.31,9.21,1.56,4.1.22,18.4,7.6,17C607.77,1197.39,607,1194.5,605.07,1194.86Z"/></g><g class="c"><path class="b" d="M81.37,669.07c-13.27-3-27.27,4.53-35.3,15.51S35,709.4,33.52,722.92c-2,18.83-.61,39.87,12.5,53.52s33.63,15.91,52.43,16.3c15.72.33,32.2-.32,45.87-8.11s23.26-24.84,17.65-39.54-29.81-19.13-37.1-5.19c-4.64,8.87-.39,20.5,7.59,26.54s18.65,7.39,28.62,6.52a76.59,76.59,0,0,0,58.39-36.87c22.8-38.81,7.56-90.2,25.58-131.45,14-32,46-53.08,62-84.16,4.93-9.54,8.27-20.87,4.6-31-2.41-6.62-7.56-11.89-13.17-16.14-27-20.46-67.07-19.77-95.19-.92S159.5,526,160.58,559.86c.74,23,7.67,48.9-6.63,66.89-8.44,10.63-22.4,15.29-35.86,16.94C80.89,648.25,40.54,634.47,7,651.2c-40.07,20-48.44,80.5-20.4,115.43S68.27,809.23,109,790.69"/><path class="b" d="M81.77,667.62c-11.43-2.22-22.67,2-31.16,9.69-9.9,9-14.71,22.19-17.08,35.06-4.22,22.93-4.66,52.47,15.22,68.6,9,7.28,20.36,10.52,31.64,12a158.87,158.87,0,0,0,40.93.35c12.18-1.59,24.46-5.68,33.12-14.78,7.28-7.65,12.08-18.44,10.25-29.12-2.79-16.37-27.12-27.48-39.12-13.26-6.39,7.57-4.64,18.8.91,26.28,7.18,9.69,20,12.61,31.43,12.2,24-.88,47.07-14.2,60.46-34,14.84-22,16.09-49.41,17.5-75,.78-14.25,1.57-28.62,4.79-42.58a103.12,103.12,0,0,1,16.77-36.86c15.22-21.42,36.07-38.52,49.1-61.56,6.19-11,11.23-24.59,6-36.91-4.47-10.6-15.28-18.12-25.3-23-22.11-10.71-48.8-10.5-71.23-.85S176.66,492.7,167.38,515a108.9,108.9,0,0,0-8.22,36.53c-.65,13.31,1.71,26.5,2.17,39.77.48,13.79-1.39,28.34-12,38.24s-25.85,12.64-39.76,13.41c-28.75,1.6-58.06-5.67-86.49,1-21.36,5-38.39,18.81-47.29,38.88a86.63,86.63,0,0,0-3.75,58.76c13.15,44.9,62.81,65.22,106.33,59.41a113.56,113.56,0,0,0,31.42-9c1.76-.78.23-3.37-1.52-2.59C69.48,806.72,18.11,801-10.57,767.69c-24.86-28.9-24-78.34,3.9-105.05,38.43-36.74,96.49-5.2,141.45-21.22,9.82-3.5,18.67-9.63,23.8-18.89,5-9,6-19.53,5.8-29.69-.27-12-2.33-24-2.35-36a106,106,0,0,1,5.57-33.94c7.56-22.45,23-42.65,44.18-53.69,20.74-10.79,46.28-12.68,68.21-4.34,11.11,4.23,23.7,11.67,29.19,22.67,6.42,12.89-.33,27.71-7.19,38.91-12.18,19.88-29.91,35.48-44,53.93-14.29,18.76-21.17,39.41-23.56,62.73-2.47,24.13-1.17,49-8,72.51-6.84,23.7-23.56,43.11-47,51.68-11.29,4.14-24.44,6.17-36.19,2.82s-23.89-16.54-17.2-29.45c4.59-8.83,16.39-9.17,24.4-5.31,10.42,5,13.53,16.5,10.19,27.11-8.62,27.41-41.31,29.51-65.29,28.71-24.15-.81-50-6.92-58.14-32.74-3.45-10.92-3.55-22.69-2.45-34,1.32-13.56,4.22-27.9,12.5-39.07C55.05,675,67.92,668,81,670.51c1.89.37,2.7-2.52.8-2.89Z"/></g><g class="c"><path class="d" d="M368,324.58c-5.69-12.63-17.94-24.18-29.4-32-7.81-5.32-17.12-8.08-26.47-9.44C263,276,216.55,305.21,176,333.92c-8.42,5.95-17,12-25.77,17.82-4.15-14.94-13.77-28.8-25.64-39.07C98.43,290.05,62.48,281.41,27.92,282c-28.58.48-56.64,6.67-84.38,13.83-16.93,10.6-40.16,10.48-56.18,23-20.66,16.1-22,47.09-15.75,72.53a178.68,178.68,0,0,0,68.58,101.5c15.07,10.83,32.35,19.78,42.59,35.24,13.39,20.21,11.61,46.4,11.45,70.64-.24,34.67,4.21,70.38,21.1,100.66s48.17,54.22,82.83,54.81c39.15.66,75-29.83,86.14-67.37,6.73-22.71,5.27-47-2.17-69.61,1.29-8.15,2.42-16.41,4.36-24.09,12.08-47.82,58.95-76.85,100.66-103.17s86.22-62,88.18-111.28C376.06,360.33,375.53,341.29,368,324.58Z"/><path class="d" d="M369.31,323.82c-6.41-13.61-18.13-24.85-30.62-33-13.13-8.53-29.92-10.72-45.27-10.23-33.67,1.07-64.91,16.94-92.73,34.72-17.45,11.16-34,23.62-51.24,35.11l2.21.89C137.92,304.18,86,283,40.92,280.71c-26.68-1.38-53.33,3.05-79.23,9.07-6.13,1.43-13.07,2.33-18.9,4.73-2.67,1.1-5.14,2.88-7.83,4a100.66,100.66,0,0,1-9.86,3.55c-10.35,3.24-21.14,5.51-30.85,10.53-40.7,21.08-28.2,77.84-12.81,111.09a181,181,0,0,0,39.64,55.22A203.56,203.56,0,0,0-52,500c10.2,6.83,20.78,13.54,28.93,22.86C-5.81,542.62-6.95,570-7.23,594.63c-.3,25.19,1.38,50.65,8.56,74.92,12.36,41.74,45,81.5,90.93,85.78,41.52,3.88,79.92-27.07,92.62-65.41a107.64,107.64,0,0,0,5.18-37.08,122.22,122.22,0,0,0-2-18.4c-1.36-7.47-4.81-15-3.62-22.51,1.92-12.3,4.3-24.32,9.63-35.65a116.9,116.9,0,0,1,17.83-26.83c29.76-34.17,72.15-52.64,107.39-80,16.88-13.11,32.79-28.27,43.85-46.74C375,403,378,381.7,376.87,359c-.58-12.12-2.7-24-7.56-35.19-.77-1.76-3.35-.24-2.59,1.52,5.48,12.61,7.17,26.27,7.33,39.93.14,11.35-.35,22.62-3.57,33.57-6,20.55-19.48,38-34.8,52.63-30.73,29.29-69.8,47.12-102.59,73.72-15.36,12.46-29.56,27-39,44.52a103.14,103.14,0,0,0-10.24,28.38c-.7,3.39-1.27,6.8-1.81,10.22-.44,2.72-1.44,5.92-1.36,8.67.08,2.43,1.49,5.23,2.13,7.6.87,3.22,1.62,6.48,2.24,9.76,4.67,24.66,1.65,50.88-11.2,72.68-10.64,18.07-27.3,33-47,40.47C84.16,763.74,40,738.13,18.1,701.17c-12.89-21.79-18.91-47-21.19-72-2.15-23.69.84-47.7-2.29-71.28-1.36-10.23-4.18-20.39-9.67-29.2S-28.31,513-36.59,506.92c-9.33-6.82-19.31-12.7-28.4-19.87a176.1,176.1,0,0,1-23.69-22.64,177.6,177.6,0,0,1-33.85-58.51c-6.83-19.84-10.9-42.22-4.57-62.75,3.15-10.24,9.25-19.36,18.3-25.27,9.58-6.26,20.93-8.78,31.75-12a120.5,120.5,0,0,0,13.35-4.66c2.31-1,4.45-2.29,6.72-3.35,3.74-1.76,8-2.45,12-3.43,13-3.17,26-6,39.2-8,46.7-7.09,102.16-2.66,136.3,34.1a79.06,79.06,0,0,1,18.2,31.6,1.52,1.52,0,0,0,2.21.9c27.5-18.34,53.57-39,83.49-53.38,28.07-13.51,63.14-22.75,93.46-11,16.06,6.24,31.5,21.12,38.8,36.64C367.54,327.08,370.13,325.56,369.31,323.82Z"/></g><g class="c"><path class="b" d="M-17.26-13.59A177.4,177.4,0,0,1,64.53-5.13C72.35-2.38,80.12,1,86.36,6.45c11,9.59,16,24.4,18.11,38.84,10,67.7-.4,224.67-28.45,287.09-9.84,21.88-49.63-48.87-66.76-32.08s-45.77,24.88-65.33,11c-16.38-11.63-20.8-33.66-23.72-53.54-5.29-36-9.79-73.48,1.35-108.1,6.79-21.11,19.07-40,27.89-60.34A196.86,196.86,0,0,0-34.39,15c.15-7.75-.08-15.87,3.44-22.78S-18.58-19.65-11.76-16"/><path class="b" d="M-17.26-12.09a178.82,178.82,0,0,1,62.81,3c19.32,4.47,40,11,49.88,29.67,6.76,12.81,8.27,27.65,9.49,41.86,1.07,12.49,1.54,25,1.71,37.55.78,59.39-3.74,120-16,178.18a346.68,346.68,0,0,1-9.45,36.33c-1.67,5.12-3.51,10.19-5.63,15.13-1.16,2.71-2.3,5.67-5.71,5.46s-6.63-2.92-9.12-4.85a137.49,137.49,0,0,1-10.43-9.31c-6.85-6.55-13.5-13.48-21.22-19-4.94-3.55-12-7.74-18.16-4.66a19.77,19.77,0,0,0-4.33,3.47,62.51,62.51,0,0,1-10.88,8,59,59,0,0,1-25.3,8.08c-43,3-47.67-48.09-51.51-79.26-2.48-20.17-4-40.7-1.58-61,2.53-21.5,10.54-40.68,20.32-59.8,9-17.68,17.66-35.28,22.79-54.56a201.6,201.6,0,0,0,5.45-29c1.1-9.68.67-19.39,1.58-29.06.88-9.38,8-24.28,20-18.75,1.74.8,3.27-1.78,1.51-2.59-6.23-2.86-13-.85-17.73,3.92C-34.81-7.25-35.6,1.79-35.81,9.94c-.55,22.39-3.5,44.14-10.89,65.38-7.3,21-19.19,39.81-27.95,60.15-8.4,19.48-12,40.1-12.18,61.25-.14,21.54,2.75,43,6,64.29,2.48,16,6,33.43,17.36,45.76,11,11.94,27.33,15.19,42.76,11.67A65.41,65.41,0,0,0,2.2,308.1c4-2.83,8-8.79,13.24-8.91,8.61-.19,17.21,9.11,22.94,14.46,7.3,6.81,14.13,14.39,22.26,20.24,4.42,3.18,11.11,6.75,15.38,1.41,2.7-3.38,4-8.57,5.52-12.57,2-5.56,3.83-11.22,5.46-16.91,8.21-28.72,12.81-58.48,16.27-88.1a945.47,945.47,0,0,0,6.36-98.21c.32-26.19.47-53.44-4.5-79.27C101.65,22.21,93,6.32,76.05-2c-18.36-9-39.88-13.16-60.19-14.3a180.64,180.64,0,0,0-33.12,1.23c-1.89.24-1.91,3.25,0,3Z"/></g><g class="f"><path class="d" d="M159.94,161.13a461.72,461.72,0,0,1,190.42,10.12C404.56,185.8,461.8,213.51,483,269.36a101.5,101.5,0,0,1,6.82,39.86c-.64,15.79-5.61,31-12.2,45.28C465,381.69,448.08,407,430.73,431.29c-34.23,48-73.11,93.15-101.66,145C302,625.47,282.91,682.42,290.41,739.17a191.21,191.21,0,0,0,3.69,19.72c.45,1.87,3.35,1.08,2.9-.8-14.32-59.38,3.16-120.63,30.94-173.38C356.35,530.78,396.42,484.29,431.77,435c17.59-24.53,34.73-50,47.66-77.32,12.15-25.73,17.35-53.07,9.22-80.83-16.1-54.95-67.73-86.62-119.29-103.14-60.08-19.25-124.77-25.22-187.44-18.48q-11.41,1.23-22.78,3c-1.9.3-1.09,3.19.8,2.9Z"/></g><g class="c"><path class="b" d="M517.62,135.59c55.52,56.32,67.78,149.19,30.9,218.82-10.4,19.64-25.46,35.63-38.93,53.11-13.69,17.77-22.91,37.27-27,59.38-8.37,44.71.54,90.46-5,135.41-6.7,54.41-40.61,97.58-74.3,138.64-1.21,1.48.9,3.61,2.12,2.12,29.47-35.91,60.35-73.79,71.48-119.94,11-45.59,1.84-92.75,6.28-138.93,2.31-23.95,9.08-46.8,22.85-66.73,13.18-19.07,30-35.31,41.73-55.43,19.61-33.6,27.42-73.48,24.11-112.09-3.72-43.33-21.4-85.36-52.08-116.48a1.5,1.5,0,0,0-2.12,2.12Z"/></g><g class="c"><path class="d" d="M1191.85,186.1c-23-75.23-85.79-137.84-165.11-149.7-39.82-6-81.73.44-117,20.34C873.94,77,848.18,110,818.28,137.5c-18.22,16.75-38.32,31.23-61.73,39.76a158.11,158.11,0,0,1-77,7.85c-1.89-.28-2.71,2.61-.8,2.89a161.88,161.88,0,0,0,119.58-30c32.31-23.79,56.77-56.26,87.89-81.41a177.31,177.31,0,0,1,116.2-39.28,189.89,189.89,0,0,1,114.09,41.84c34.39,27.53,59.57,65.74,72.44,107.77.57,1.84,3.46,1.06,2.9-.8Z"/></g><g class="c"><path class="b" d="M318.11,39.45c39.51-6.26,75.94-50.23,124.25-49.32C538-8.06,602.6,103.48,698,110.3c49.72,3.56,100.18-26,121.35-71.17,4.63-9.87,8-20.57,7.84-31.48-.25-18.26-10.25-35.06-22.35-48.74C774.81-75,729.59-95,684.26-94.36c-32.22.47-63.79,10.78-96,10.4-39.08-.45-76.08-16.49-114.29-24.72a289.64,289.64,0,0,0-112.51-1.81c-28.21,5.13-56.53,15-77.44,34.64S251.13-25.28,259.88,2s41.81,46.15,68,34.49c28.5-12.69,37.2-51.6,65-65.74"/><path class="b" d="M318.51,40.89c21.23-3.57,39.7-16.14,57.95-26.78C397.12,2.07,419.13-9,443.65-8.34c43.52,1.24,81.28,26.05,115.53,50.53s68.49,52.22,109.57,64.26A129.15,129.15,0,0,0,793.84,76.54c17.3-16.28,32.49-39.3,34.64-63.46,2.35-26.33-15.4-49.78-33.78-66.62A162.71,162.71,0,0,0,728.88-90c-26.77-7.5-53.59-6.49-80.83-2.27-15.48,2.4-30.91,5.34-46.57,6.4a178.41,178.41,0,0,1-47.18-3.47c-28.92-5.79-56.64-16.33-85.59-22a290.81,290.81,0,0,0-92.1-3c-26.51,3.36-53.52,9.92-76.41,24.21-20.6,12.87-37,32.51-42.68,56.44-5.14,21.57-.27,44.53,16.34,59.84,14.47,13.34,36.15,20,54.78,11.65C347.69,29.32,358,9.64,370-6.23c6.54-8.64,14-16.6,23.66-21.69,1.71-.9.19-3.49-1.52-2.59C358.2-12.68,347,49.55,299.28,37A55.24,55.24,0,0,1,258.62-12.6C257-37.12,269.42-61.06,287.51-77c20.2-17.81,46.63-26.82,72.7-31.73a288.26,288.26,0,0,1,89.15-2.63C478.92-107.65,507-98,535.69-90.55a252.91,252.91,0,0,0,39.8,7.41c14.36,1.33,28.67.43,42.93-1.48,28.29-3.79,56.29-10.53,85-7.31A160,160,0,0,1,774-66c21.33,14.25,43.29,35.42,49.92,61,6.72,26-8.07,53.24-25.08,72.07-31.21,34.55-79.36,49.35-124.43,37.79-39.83-10.22-73.39-36.18-106.13-59.84-31.89-23-65.72-47.19-105.25-54.35-20.81-3.77-40.77-1.85-60.3,6.4C382.85,5.52,365.25,18.23,346,28c-9,4.57-18.35,8.34-28.33,10-1.9.32-1.09,3.21.8,2.89Z"/></g><path class="b" d="M946.92-46c65,1.51,127.55,26.72,176.1,69.86,23.21,20.62,46.09,44.45,77.65,51.19,27.15,5.79,54.9-5.47,66.85-31.3,12.53-27.08,0-59.95-26.49-73.1-1.72-.85-3.24,1.73-1.51,2.59,25.49,12.63,37.57,44.43,24.79,70.28a54.23,54.23,0,0,1-28.94,26.76c-14.6,5.51-30.78,3.82-45.21-1.37-29.94-10.79-51-36-74.93-55.68A276.19,276.19,0,0,0,946.92-49C945-49,945-46,946.92-46Z"/></g></svg>