<svg xmlns="http://www.w3.org/2000/svg" viewBox="0 0 1024 530"><defs><style>.a{fill:#fefefe}.b{fill:#fe0000}.c{fill:#0000fe}.d{fill:#0202fe}.i{fill:#5f5ffe}.r{fill:#fd0404}.s{fill:#fd0606}</style></defs><path class="a" d="M588.88-.6h187.2a24.79 24.79 0 0 1 7.06 4c11.66 8.21 21.73 18.29 32.51 27.54 10.4 8.86 21.35 16.87 34.83 20.66 15.2 4.28 29.19 2.07 41.32-8.25 6.78-5.77 10.6-13.48 12.2-22.35a37.58 37.58 0 0 0-1.5-17.83c-.36-1.17-1.07-2.42-.43-3.77h27.76c1.6 2.1.39 4.4.24 6.52A179.7 179.7 0 0 1 924 42.47a2.11 2.11 0 0 1-.83.82c-17.22 3-26.07 14.49-30.82 30.19-2.5 8.29-3.94 16.82-5.7 25.27-1.58 7.56-3.71 14.94-7.46 21.75-.64 1.18-1 2.78-2.76 2.88-1.4-1.64-.87-3.62-.89-5.47-.16-12-3-23.32-9.63-33.38-5.73-8.65-13.09-15.62-23-19.37-10.1-3.81-19.8-3.25-28.7 3.24-2.49 1.81-4.09.93-5.81-.87a135.68 135.68 0 0 0-17.69-15.43c-20-14.75-42.26-23.87-67.09-26.2-36.47-3.44-69 6-97.09 30-14.64 12.45-27.53 26.68-41.41 40.01s-29 24.42-47.2 31.05a103.24 103.24 0 0 1-33.73 6.45c-6.51.11-13.05.41-19.54-.54 5.51.89 11 1.84 16.63 1.51a129.66 129.66 0 0 0 37.89-7.38c15.27-5.64 28.4-14.56 40.46-25.3 12.77-11.37 24.28-24 36.58-35.86 11.58-11.18 24.17-21 38.84-27.87a128.38 128.38 0 0 1 44.8-11.8C728 23.93 754 30.44 778.26 44.35a150.12 150.12 0 0 1 29.74 23c1.89 1.84 2.76 3.67 1 6.22-8.61 12.41-8.82 26-4.86 39.87 3.15 11 9 20.86 15 30.59 2 3.34 4 6.71 6.38 9.86a4.07 4.07 0 0 1 1.15 3.3c-1 1.34-2.49 1-3.85 1.16-14.92 2.1-27.1 8.87-34.85 22-8.55 14.42-6.5 25.65 6.03 36.65a76.58 76.58 0 0 1 20 27.32c2.62 6.12 2.66 12.11-1.56 17.83-14.81 20.09-24.19 42.59-29.44 66.9a3 3 0 0 1-1.14 1.27c-19.94 8.37-40.19 15.78-61.92 17.9-12.15 1.18-24.12-.53-35.91-3.55-7.12-1.82-14.27-3.55-21.53-4.68-15.37-2.41-30.2-.11-44.71 5.15-15.54 5.63-28.9 14.67-40.83 25.91-5.45 5.13-9.73 11.3-14.5 17a4.22 4.22 0 0 1-.93.57 121.53 121.53 0 0 0-27.23 9.07c-14.8 7.25-27.84 17.06-40.35 27.65s-23.93 21.87-35.84 32.88c-5.56 5.15-10.93 10.48-16.36 15.77a155.6 155.6 0 0 0-19.19 23.26c-.92 1.32-1.54 3-3.41 3.4-1.89-1.12-1.81-3.24-2.37-5-2.29-7.16-5.82-13.48-11.77-18.25-4.3-3.44-9.34-5.1-14.68-5.89-4.52-.68-4.84-.87-3.77-5.43a296.63 296.63 0 0 1 11.83-38.76c10.22-26.67 23.87-51.38 42.32-73.27 17.82-21.15 38.53-38.73 63.29-51.5 22-11.36 45.49-18.28 69.17-24.82 20.46-5.64 40.94-11.21 60.42-19.86a160.77 160.77 0 0 0 42.72-27.18c12.1-10.87 21.82-23.36 27.85-38.55a67 67 0 0 0 5.12-23.06c-1 1.89-.67 4-1 6-2.51 16.05-9.72 29.88-19.91 42.28-15.61 19-35.78 31.6-58 41.27-20.41 8.9-42 14.26-63.32 20.19-22.32 6.34-44.52 13.18-65.18 24.18a200.38 200.38 0 0 0-37.82 26.4c-20.75 18.19-37.29 39.71-50.61 63.75a279.86 279.86 0 0 0-24.31 60.23c-1.28 4.57-2.62 9.13-3.53 13.78-.52 2.67-1.72 4.17-4.59 4.51a40.32 40.32 0 0 0-16.72 5.64c-.89.56-1.89 1.06-3 .34-2-2.55-1.35-5.69-1.73-8.54-2.18-16-4.94-31.85-6.26-47.9-1.85-22.48-2.52-45 4-67a104 104 0 0 1 13.3-27.77c3-4.56 6.16-9 8.61-13.89 5.59-11.19 5.82-22-2.13-32.35a7.38 7.38 0 0 1-1.46-2.82c-.17-1.7.79-2.93 1.77-4.12 16.34-19.8 25.22-42.74 28.12-68 2.79-24.42-1.15-47.91-10.55-70.57a125.21 125.21 0 0 0-21.18-33.93 18 18 0 0 0-3.91-3.63 128 128 0 0 1 13.51 17.2A132.5 132.5 0 0 1 404.75 174c2.69 25.25-.46 49.66-11.23 72.86a130.32 130.32 0 0 1-17.9 27.7 4.31 4.31 0 0 1-1.65 1.31 2.52 2.52 0 0 1-1.19 0c-5.46-2.75-11.06-4.81-17.36-4-8.1 1-13.92 5.67-18.69 11.85-7 9-9.72 19.62-11.61 30.57-2.54 14.76-1.27 29.5.33 44.23 1.84 16.94 3.91 33.87 3.18 51-.14 3.38 0 6.85-1.81 9.94-1.83.16-2.35-1.4-3.09-2.5-12.68-18.79-30.47-28.95-52.85-31.3a69.88 69.88 0 0 0-14.53.08c-1.41.14-2.81.6-4.14-.26-1.17-2.06.5-3.36 1.42-4.73 10.18-15.17 21.2-29.73 32.23-44.28 17.77-23.43 35.46-46.92 49.54-72.86 7.66-14.11 13.57-28.88 14-45.1.51-19.3-6.7-36.12-18.52-51.09-10-12.68-22.72-22.09-36.84-29.68a185.29 185.29 0 0 0-31.43-13.24c-1.43-.45-3-.72-4-2.1-.14-1.51 1-2.36 1.78-3.32a49.85 49.85 0 0 0 9.14-16.75c2.32-7.1 4.42-14.28 7.26-21.2 6.39-15.54 17.31-26.9 32-34.89a74.56 74.56 0 0 1 39.62-9.34 68.51 68.51 0 0 1 22.08 5c7.28 2.85 14.34 6.24 21.64 9.07 11.11 4.33 22.24 5.66 33.51.68a4.3 4.3 0 0 1 1.74-.32c2.4.15 4.11 1.73 6 2.95 14.44 9.49 29.52 17.73 46.48 21.62 34.54 7.92 64.19-1.44 88.72-26.7 10.42-10.72 17.53-23.46 19.74-38.58a43.56 43.56 0 0 0 .23-8.15c-.04-1.04-.49-2.12.33-3.07z"/><path class="b" d="M-.5 464.92V220.06a41.73 41.73 0 0 1 5.55-5.49c3.69-3.06 7.55-3.1 11.53-.74a41.86 41.86 0 0 1 8.65 6.8 195.36 195.36 0 0 0 16.5 15.14c3.35 2.75 6.79 5.16 11.59 2.7 2.13-1.09 2.46 1.18 2.76 2.62A59.08 59.08 0 0 0 62.74 259c9.39 16.29 21.73 29.27 40.2 35.24a67.88 67.88 0 0 0 8.68 1.91c6.67 1.25 9.11 3.91 9.86 10.59 0 .36.07.71.13 1.06.87 5.5 2.44 6.42 7.69 4.54 23.76-8.51 38.94-25.39 47.45-48.72a115.36 115.36 0 0 0 6.87-45.42c-.21-4.49-1.28-8.9-1.67-13.39a2.52 2.52 0 0 1 .5-1c4.74-2.71 10.08-3.35 15.31-4.22 11.13-1.87 22.29-2.06 33 1.83 18.37 6.66 31.15 19.1 35.74 38.37 4.31 18.13 3.74 36.33-3.62 53.76-5.51 13-14.75 23.41-25.15 32.76a186.28 186.28 0 0 1-14.91 12.11c-1.51 1.1-3 2.43-5.05 2.36a5 5 0 0 1-2.43-1.4c-16.89-15.5-44.7-17.92-65.88-6.42-19.08 10.36-29.6 27-34.28 47.8-2.44 10.83-1.56 21.66-.51 32.53a75.15 75.15 0 0 1-.22 19.13c-2.08 13-10.09 20.64-22.43 23.76-9.33 2.35-18.84 2.76-28.54 2.18-14.74-.89-29.55-2.39-44.3.15a49.62 49.62 0 0 0-16 5.54c-1.18.65-2.27 1.43-3.68.87z"/><path class="b" d="M427.6 51.77c-12 6.14-24.05 4.64-36.09 0-9.81-3.79-19.09-9-29.32-11.65-25.46-6.5-47.73.3-67.38 17C283.16 67 277.12 80.26 273 94.6c-2.9 10.06-6.41 19.84-14.45 27.6a196.09 196.09 0 0 1 36 14.74c16.78 9.13 31.55 20.65 42.14 36.82 16.34 25 17.6 51.07 5.42 78.07-9.46 20.95-22.29 39.84-35.62 58.43-17.13 23.88-35.72 46.69-52.22 71-.87 1.27-1.67 2.59-2.5 3.88a1.38 1.38 0 0 1-1 1.27 2.43 2.43 0 0 1-2.17-.33c-1-1.91.46-3.16 1.34-4.45 10.36-15.19 21.29-30 32.45-44.57 17.13-22.43 34.07-45 48.06-69.6 5.57-9.78 10.68-19.83 13.79-30.76 6.64-23.27 1.44-44.34-12.11-63.66-9.56-13.63-22.26-23.8-36.73-31.92a197.42 197.42 0 0 0-35-14.84 7.9 7.9 0 0 0-7 .66c-7.6 4.33-15.89 5.72-24.62 5.22a72.36 72.36 0 0 1-18.49-3.34c-2.52-.83-3.87-.27-4.9 2.29A44 44 0 0 1 185 154.08c-8.76 4.74-18.13 7.55-28.29 6.83a3 3 0 0 1-1-.53 212.52 212.52 0 0 1-37.35-51.63c-7.39-14.15-12.64-29-14-45.15-1-12.23.84-24.07 2.73-36 1.31-8.19 3.21-16.27 4.53-24.46.23-1.43.5-2.81 1.72-3.77h69.76c2.3 3.12 2.9 6.96 4.9 10.22a38.77 38.77 0 0 0 45.28 16.89 107.34 107.34 0 0 0 22.82-10.65c6.08-3.68 12.23-7.23 18.42-10.72 4.2-2.37 8.46-4.7 13.26-5.71h57c11.35 3.33 21.55 9.13 31.5 15.3 17.34 10.76 33.37 23.4 50.1 35.06a4.52 4.52 0 0 1 1 1 2 2 0 0 1 .22 1.01zM782.36 329.13A162.32 162.32 0 0 1 800 280.29a129 129 0 0 1 11.39-18c4.24-5.4 4.47-11 2.13-17-4-10.36-11-18.71-18.7-26.51-1.33-1.35-2.71-2.65-4.12-3.92-9.89-8.92-10.89-19.63-5.59-31 7.51-16.16 21.07-24 38.27-26.38.9-.12 1.82-.12 3.25-.22-1.26-1.88-2.3-3.41-3.31-5-7.79-12-15.62-24.1-19.86-37.93-4.66-15.25-4-29.94 6.27-43.44a92 92 0 0 0-10.75-10.5c-27.25-23.39-58.79-35.13-94.7-33.71-30.59 1.21-57.28 12.66-80.09 33.06-13.73 12.26-26 25.94-39.4 38.56-17.17 16.22-36.43 28.64-59.81 33.87a113.94 113.94 0 0 1-39.9 1.93c-1.09-.14-3.3.52-3.05-1.37s2.38-.94 3.59-.8a113.22 113.22 0 0 0 47.06-4.16c19.51-6 35.59-17.41 50.31-31.1 13-12.1 24.94-25.35 38.06-37.37 20.71-19 44.65-31 72.68-34.12 39.64-4.36 74.72 6.67 105.21 32.29 4.34 3.66 8.38 7.68 12.56 11.54 12.5-10.41 29.29-9.79 44.33 2.79 14.87 12.45 20.54 29 20.61 47.93v3.55a1.41 1.41 0 0 1 .19 1.13c-4.07 8-11.14 12.34-19.12 15.53-3.85 1.54-7.87 2.65-11.65 4.36-15.64 7.06-24.15 19.75-27.83 36-4.45 19.58.41 37.12 12.65 52.69 12.45 15.86 29.14 25.44 48.06 31.44 15.27 4.83 31 6.44 47 6.64 14.58.18 29.09-1 43.62-2 16.64-1.16 33.28-2.74 50-2.29 1.75.05 3.6-.34 5.11 1V408c-1.09.28-1.52-.57-1.87-1.26-4-7.83-10.38-13.54-17.09-18.81-11.75-9.24-22.37-19.82-34.61-28.46-22.53-15.91-45.79-30.53-71.52-40.81a131.93 131.93 0 0 0-29.88-7.81 5.48 5.48 0 0 0-4.29.55c6.89 20.82 16.73 40.29 28.24 59A218.55 218.55 0 0 0 919.9 405a11.16 11.16 0 0 1 1.37 1.63c.67 1.11.91 2.27-.18 3.21s-2 .12-2.82-.56c-3.2-2.67-5.69-6-8.34-9.18a258.14 258.14 0 0 1-24-33.86c-.36-.61-.73-1.21-1.13-1.8a297.55 297.55 0 0 1-23.19-50.31c-1.43-4.13-2.08-4.19-6.55-4-23.39 1.2-44.89 9.31-66.35 17.7-1.99.84-3.92 2.52-6.35 1.3z"/><path class="c" d="M156.31 160.15l.73.23c5.45 3.44 8.88 8.8 12.73 13.69 6.07 7.71 10 16.59 12.65 26 .38 1.32 1 2.71.13 4.11a2.69 2.69 0 0 1-.19.32c-2.89 2.45-6.64 3-10 4.46-16.05 6.81-30.43 16.43-44.67 26.29q-8.78 6.08-17.53 12.18c-2.8 2-3.6 1.72-4.94-1.58C98 227.93 84.31 216.65 67 209.21c-17-7.32-34.88-9.59-53.21-8.77-3.53.16-7.09.48-10.61 1-1.3.19-2.6.45-3.7-.58V-.6H92c0 .12.08.31 0 .35-6.32 4.77-4.39 11.49-3.78 17.62a50.85 50.85 0 0 0 6.06 20c2 3.6 1.47 6.32-.57 9.79-14 23.84-16.09 48.72-3.12 73.55 11.27 21.56 29.9 33.68 53.82 37.91 3.96.7 8.08-.1 11.9 1.53z"/><path d="M1024.5 267.75c-22.66-.53-45.19 1.7-67.76 3.25-24.17 1.65-48.32 2.19-72.06-3.91-21.54-5.53-40.31-15.74-54.55-33.23-18.69-23-19.5-55.26-2-77.24 6.19-7.79 14.28-12.68 23.66-15.59 9.85-3.05 18.64-7.61 24.35-16.69 1.72.85.77 2.29.61 3.4a66 66 0 0 1-17.15 36.8c-1.84 2-2.24 3.52-.7 5.87 3.5 5.33 4.13 11.55 4.94 17.66.42 3.24 1.06 6.48.87 9.79 6.91-22.4 16-43.91 25.06-65.43 12-28.43 24-56.8 31.7-86.81a4 4 0 0 1 1.45-2.75 1.53 1.53 0 0 1 .47-.29 2.06 2.06 0 0 1 2.19 0 1.86 1.86 0 0 1 .52 1c-2.2 11.19-5.74 22-9.45 32.75-10.4 30.07-24.13 58.79-35.74 88.36-4.72 12-9.18 24.16-12.91 36.55a42.67 42.67 0 0 0-2 14.31c.31 7.55.81 15.08 1.42 22.38 1.15.72 1.69.07 2.24-.28 15.9-9.88 31.38-8.91 46.55 1.68 2.86 2 5.57 4.24 8.89 6.33-.23-4.55-.91-8.63-1.31-12.71-1.57-16.09.1-31.95 2.77-47.76 3.46-20.39 9.45-40.14 15.72-59.8.5-1.55.77-3.27 2.25-4.33 2.12-.14 1.91 1.73 2.34 2.9 5.79 15.6 17.27 24.45 33.22 27.9 3.69.8 7.53.39 11.3 1 6.68 1 11.75 4.27 14.9 10.24 4.61 8.7 8 17.95 11.93 27 2.26 5.18 4.93 10.22 6.34 15.76z"/><path class="c" d="M886.5 365.85c8.41 13.17 17.14 26.11 27.62 37.76 1.43 1.59 2.83 3.19 4.3 4.74.69.74 1.33 1.8 3.42.58-10.63-12.23-21.06-24.45-29.17-38.38 2.47-.47 3.61 1.5 4.94 2.87a191.32 191.32 0 0 0 34 27.9c14.77 9.54 30.15 17.87 47.44 22.09 13.69 3.35 27.35 4 41.07.21 1.42-.39 2.95-1.15 4.41 0V529.7c-4.07.74-8.18.15-12.26.34H904.05a3.56 3.56 0 0 1-2.14-1.74c-10.41-14.25-20.89-28.44-28.53-44.5A85.2 85.2 0 0 1 865 451c-.4-8.31 1.3-16.49 3.72-24.47 2.86-9.42 6.58-18.52 10-27.73 3-8 5.52-16.13 6.4-24.69.97-2.67-.72-5.79 1.38-8.26z"/><path d="M-.5 464.92c16.31-10.13 34.36-9.16 52.4-8.13 12.76.73 25.51 1.87 38.19-1.05q23.1-5.33 24.11-29.09c.45-11-2.12-22-1.49-33 1.53-26.75 12.29-48.62 36.46-61.45 21.39-11.36 43.08-10.24 63.49 3.66a64.87 64.87 0 0 1 5.41 4.58 1 1 0 0 1 0 1c-7 5.74-14.88 10.1-22.43 15-13.26 8.56-26.43 17.24-37.9 28.16-15 14.25-24.08 31.52-26 52.31-.29 3.11.61 6.11 1.37 9.09 4.15 16.3 3.86 32.43-2.13 48.22a69.58 69.58 0 0 1-28.27 34.65c-1.12.71-2.44.87-3.57 1.51H40.78c-8.07-3.06-14.27-8.72-19.88-15a101.37 101.37 0 0 1-19.43-32.31c-.93-2.46-.91-5.09-2-7.47z"/><path class="c" d="M99.15 530.41c6.61-4.6 13.14-9.25 18.41-15.47 16.05-18.93 20.9-41 15.43-64.58-4.38-18.86.94-34.8 10.54-50.09 7.79-12.42 18.86-21.83 30.6-30.4 14.17-10.35 29.29-19.26 43.88-29 2.11 0 2.64 1.82 3.46 3.16 4.89 8.06 3.43 16.18-.08 24.2-4.3 9.78-10.89 18-17.9 26C194 405 184 415.32 177.15 428.08c-.25.39.67.37.22.22-.17-.06-.22-.15-.14-.29 2.06-3.42 5.44-5.53 8.27-8.15a160.81 160.81 0 0 1 33.33-24.15 111.3 111.3 0 0 1 24.17-9.45c1.55-.41 3.26-1 4.59.63.42 2.28-1.2 3.75-2.26 5.4-12.62 19.77-23.09 40.56-30.47 62.88a172.84 172.84 0 0 0-8.58 63.75c.15 2.72.67 5.41 1 8.12.13 1.19.37 2.36-.54 3.37z"/><path class="c" d="M251 385.84l.8-.66c8.51-.74 17-1.15 25.48.39 20.58 3.73 36.55 14.3 47.84 31.92.45.69.94 1.36 1.4 2a2.53 2.53 0 0 1 .47 1c-.57 9.54-3.87 18.23-8.38 26.53-5.95 11-15 19.16-24.37 27-6.46 5.39-13.15 10.51-19.3 16.24-7.59 7.08-14.3 14.88-17.36 25.14a7.46 7.46 0 0 0-.58 2c.14 6.89-4.3 10.3-9.74 13h-37.78c-2.66-2.2-2-5.43-2.3-8.23-3.05-30.4 3.8-59.06 15.68-86.76A295.8 295.8 0 0 1 246.69 391c1.22-1.87 2.31-3.87 4.31-5.16zM427.6 51.77v-.35c.61-1.44 2-1.93 3.17-2.74 9.09-6.51 11.72-17 6.15-26.65C430.44 10.77 420 4.82 407.77 1.58c-1.64-.43-3.94.27-4.68-2.18h185.79c2.16 13.4-2.11 25.31-9 36.4-23.1 37.38-70.06 54.56-114.68 36.51-13.36-5.4-25.58-12.76-37.6-20.54z"/><path d="M-.5 200.84c9.2-.85 18.4-1.79 27.67-1.31 17 .87 33.3 4.54 48.35 12.77 14.75 8.07 25.88 19.45 31.62 36.1 3.69-2.55 7.16-4.9 10.59-7.31 15.81-11.1 31.51-22.37 49.12-30.56 5-2.35 10.08-4.7 15.51-6 2.74 10.84 2.78 21.83 1.48 32.83-2.1 17.68-7.36 34.26-17.83 48.88-9.88 13.77-23.12 22.87-39.27 27.91-3.06 1-4.57-.28-5.32-2.91a24.58 24.58 0 0 1-.88-5.6c-.18-4.12-2.27-6.69-6.11-7.75-3.19-.87-6.5-1.3-9.69-2.14-14.89-3.91-26.07-13.15-35.38-25a70.73 70.73 0 0 1-14.73-32.35c-5.31 4.52-9.43 1.29-13.51-1.85-5.83-4.51-10.84-9.92-16.17-15a44 44 0 0 0-8.59-6.86C11.53 212 9 212.38 4.79 216.05c-1.66 1.46-3 3.42-5.29 4z"/><path class="b" d="M1024.5 205.83c-3.2-4.7-4.75-10.16-7.06-15.26q-5.27-11.62-10.1-23.44c-3.5-8.53-9.66-13.26-18.9-13.61-22-.83-36.63-11.46-43.64-32.4a1.84 1.84 0 0 1-.48-1.55c5.24-18.13 11.92-35.76 18.5-53.41 7.66-20.56 16.13-40.79 25-60.84.9-2.05 1.65-4.21 3.2-5.92h33.45z"/><path d="M1024.5 423.64c-7.26 1.61-14.48 3.38-22 3.46-18.19.2-35-5-51-13.17-20.92-10.73-39.8-24.23-56-41.37a6.33 6.33 0 0 0-2.86-2 274.82 274.82 0 0 1-29-60.68c5.43-.51 10.34.7 15.22 1.71 21.4 4.42 40.41 14.47 59.08 25.29a348.92 348.92 0 0 1 61.3 44.74c3.14 2.88 6.72 5.26 10 8 6.17 5.2 11.54 11.1 15.27 18.35zM247.21 530.41c5-5.11 7.47-9.28 9.89-16.5 3.51-10.45 10.64-18.28 18.59-25.5 9.46-8.59 19.84-16.1 29-25a72.58 72.58 0 0 0 21.56-41.77 8 8 0 0 1 .44-1.33c1.88.25 2.28 1.91 3 3.22a83 83 0 0 1 6.74 16.1 152.9 152.9 0 0 0 3-28.83c0-12.81.22-25.62-.09-38.42a234 234 0 0 1 1.13-31.89c2.49-22.31 11.84-41.55 26.54-58.3 2-2.27 3.27-5.28 6.32-6.54a1.66 1.66 0 0 1 .49-.07 2 2 0 0 1 1.69 2.23c-.44 1.81-1.74 3.07-2.87 4.43-8.38 10.17-16.57 20.45-21.35 33-4.22 11.08-6.08 22.57-7.08 34.34-.89 10.54-.56 21.08-.56 31.61 0 6.51.77 13 .69 19.52-.18 14.84-1 29.6-4.55 44.08a14.41 14.41 0 0 0 .12 6.69 140.06 140.06 0 0 1 3.67 34.52 154.46 154.46 0 0 1-6.44 41.32 6.92 6.92 0 0 1-1.67 3.09z"/><path class="a" d="M781.06-.6h118.87c2.5 3.11 3.15 6.93 3.61 10.65 2.85 23.06-14.87 42.82-38.14 43-12 .1-22.53-3.93-32.53-9.95S814.4 29.41 806 21.6c-7.09-6.53-14.39-12.74-22-18.6-1.27-.89-3.14-1.47-2.94-3.6z"/><path d="M156.31 160.15c-31.11 1.3-69-21.37-74.3-63.23-2.4-19.1 1.67-36.71 12.53-52.66a3.37 3.37 0 0 0 .17-4.12c-5.51-9.7-7.77-20.26-8-31.31-.1-4.16 1-7.73 5.37-9.43h21.36c-3.1 17.46-7.5 34.73-8.37 52.51-1 20.19 4.9 38.78 14.19 56.44a219.37 219.37 0 0 0 35.37 49.58c.59.67 1.1 1.48 1.68 2.22z"/><path class="c" d="M361.75 477.93a42.2 42.2 0 0 1 22.08-7.37c2.46-10.43 5.14-20.71 8.5-30.8 13.67-41.17 35.16-77.44 66.95-107.32 25-23.45 54.51-38.5 87-48.38 22.39-6.81 45.21-12.15 67.36-19.8 24.32-8.4 46.86-19.85 65.45-38 16-15.59 27-33.79 29-56.57a7.67 7.67 0 0 1 .13-1.06c.2-.85 0-2.13 1.46-1.89 1.17.2.91 1.22.85 2a82.91 82.91 0 0 1-1.76 11.93c-5.14 22.2-18.14 39.29-35.11 53.74-19.08 16.25-41.38 26.39-65 34-22.73 7.37-46 12.79-68.77 20.1-57.52 18.5-98.71 56-126.88 108.71-12.3 23-20.67 47.42-26.46 73.1 1.73.19 3.32.28 4.89.54 14.67 2.41 22.43 12.05 26.52 25.48.45 1.47.81 3 1.21 4.43a.67.67 0 0 1 .35.82c-4.31 7.93-9.34 15.46-12.72 23.89a10.11 10.11 0 0 0-1.18 4 1.56 1.56 0 0 1-.41.88h-43.4c-1.62-2.72-.42-5.57-.2-8.29a214.41 214.41 0 0 0-.6-38.84 11.51 11.51 0 0 1 0-4.22 2.45 2.45 0 0 1 .74-1.08z"/><path class="b" d="M361.75 477.93a3.2 3.2 0 0 1-.26.6c-1.83 3.07-4.73 5.2-6.84 8.07-9.27 12.59-10.72 25.91-4.33 40.14.52 1.15 1.4 2.26.81 3.67h-15.66c1.61-7.87 3.92-15.56 5.15-23.53a148.08 148.08 0 0 0-1.92-56.13 12.31 12.31 0 0 1 0-5.94c3.94-15.76 4.64-31.84 4.39-48-.29-18.12-1.22-36.24.64-54.35a100.74 100.74 0 0 1 24.89-57c2.32-2.68 4.43-5.54 6.64-8.31l.47-.09c9.93 11.68 11.16 23 4 36.68-4 7.56-9.4 14.21-13.49 21.69-8.57 15.69-12.19 32.67-13.09 50.38-1.09 21.65 1.75 43 4.73 64.36q1.94 13.83 3.87 27.76z"/><path class="a" d="M991.05-.6c-.58 3.67-2.61 6.76-4.06 10.08-15.39 35.29-29.31 71.15-41.14 107.8-.25.77-.65 1.48-1 2.22-1.88-1.72-1.73-4-1.79-6.26-.23-8 1.31-15.78 2.61-23.59 1.53-9.16 2.58-18.27-.12-27.42s-7.76-16.15-17.74-18.32a4.45 4.45 0 0 1-2.2-1.09l-.16-.25c-1-1.35-.34-2.74-.05-4.08 2.34-11 4.38-22.11 4.88-33.43A9.47 9.47 0 0 1 932-.6z"/><path d="M403.09-.6c1.42 1.25 3.28.94 4.91 1.34 11.21 2.72 20.65 8.31 27.64 17.49 9.22 12.1 5.54 26.73-8 33.19-10.69-6.78-20.64-14.63-31-21.94C380.5 18 364.12 7 345.41.09c-.28-.1-.46-.45-.68-.69h50.53a5.46 5.46 0 0 0 4.27 0zM287.78-.6c-14.69 6.65-27.92 16-42.3 23.17-8.43 4.22-17.18 7.27-26.88 6.87-16-.66-33.15-15.06-35.45-30z"/><path class="c" d="M-.5 475.6c1.5 1.09 1.38 2.92 1.9 4.4 7.39 21.29 19.8 38.63 39.38 50.39H-.5z"/><path d="M351.13 530.41c-5.81-11-7.83-22.42-2.88-34.35 2.89-7 7-13.07 13.24-17.53a204.73 204.73 0 0 1 .32 51.88z"/><path class="d" d="M781.06-.6v.35c15.1 10.5 27.68 24 42 35.42 10.31 8.22 21.59 14.36 34.8 16.63 25.06 4.31 46.82-15.23 44.92-40.43-.31-4.17-2.1-7.94-2.88-12h2.14c10.5 26-6.6 53.14-34.6 55-13.75.9-25.74-3.89-37-11.06A145 145 0 0 1 809.86 27c-10.7-9.89-21.73-19.37-33.78-27.6z"/><path d="M251 385.84c-7.25 11.8-14.65 23.51-20.79 36-10.88 22-18.92 44.91-21.82 69.43a142.8 142.8 0 0 0 .58 37.91 5.31 5.31 0 0 0 .56 1.28h-2.84c-6.62-45.87 7.88-86.7 30-125.68 3.56-6.28 7.47-12.36 11.21-18.53a.73.73 0 0 1 .73-.44z" fill="#000002"/><path d="M572.5 530.41h-153a1.18 1.18 0 0 1 .6-1.18c1.54-.82 3.23-.68 4.88-.68h142a23.27 23.27 0 0 1 3.91.24 4 4 0 0 1 1.32.45.86.86 0 0 1 .29 1.17z" fill="#fe7e7f"/><path d="M932-.6c-1.09 13.36-2.6 26.66-5.67 39.74-.27 1.14-.55 2.28-.82 3.43h-2.14c2-10.25 4.36-20.46 5.35-30.89.39-4.09.76-8.19 1.14-12.29z" fill="#fe0707"/><path d="M572.5 530.41a1.38 1.38 0 0 1-.11-.57c1.25-1.48 3-1.28 4.62-1.28q62.37-.06 124.73 0a8.5 8.5 0 0 1 4.16.67.89.89 0 0 1 .42 1.19z" fill="#7f3f7f"/><path class="i" d="M904.28 529.78h108c.28.11.38.23.31.38s-.15.24-.23.24H904.2q-.36-.25-.21-.45a.39.39 0 0 1 .29-.17zM870 530.41h-80.4a.85.85 0 0 1 .4-1.17 7.58 7.58 0 0 1 3.81-.67h72.8a10.57 10.57 0 0 1 1.77.15 4.65 4.65 0 0 1 1.3.49.86.86 0 0 1 .32 1.2z"/><path d="M789.57 529.79v.62h-73.28a.84.84 0 0 1 .37-1.16 4.37 4.37 0 0 1 1.31-.47 78.08 78.08 0 0 1 10.26-.22h55.65c1.95.02 4.12-.43 5.69 1.23z" fill="#7f7ffe"/><path d="M870 530.41a1.66 1.66 0 0 1 0-.63c1.18-1.32 2.78-1.2 4.3-1.21 8.3-.06 16.6 0 24.9 0a7.46 7.46 0 0 1 4.42 1 1.88 1.88 0 0 1 .58.19c0 .21 0 .42-.07.63z" fill="#5f0000"/><path d="M419.67 529.76a1.64 1.64 0 0 0-.2.65h-14.24a3.09 3.09 0 0 1-.08-.61c4.37-2.26 9-1 13.47-.82a2.31 2.31 0 0 1 1.05.78z" fill="#00007f"/><path d="M1012.4 530.41c0-.21 0-.41-.08-.62l12.18-.09c-1.59 1.68-3.57.45-5.35.65a60.74 60.74 0 0 1-6.75.06z" fill="#2f2ffe"/><path d="M706.32 530.41a4.12 4.12 0 0 0 0-.61c1.69-1.55 3.54-1.23 5.43-.49a.79.79 0 0 1 .28 1.1z" fill="#7f2041"/><path d="M712 530.41v-.58a2.81 2.81 0 0 1 4.26 0 1.44 1.44 0 0 0 0 .62z" fill="#7f2042"/><path d="M399.53-.6a3.2 3.2 0 0 1-4.27 0z" fill="#000039"/><path class="c" d="M789.57 529.79l-67.38-.1c-1.65 0-3.31-.06-5-.09-6.7-7.85-16-11.13-25.3-14.5-11.72-4.25-23.26-8.92-33.6-16.05-7.56-5.23-13.89-11.51-16.48-20.72a65.46 65.46 0 0 1-1.91-14.06c-.48-8.28-.92-16.55-2.05-24.77-3.82-27.6-19.26-43.91-46.8-49.73-8.59-1.82-17.2-1.55-25.85-1.33-1.14 0-2.36.61-3.33-.5 17.83-25.54 41.78-41.87 72.38-48.34 15.76-3.33 31-.6 46.23 3.22 13.12 3.3 26.31 6 39.94 4.49a171.58 171.58 0 0 0 39.46-9.49c7.32-2.62 14.58-5.38 21.86-8.08 1.09 1.14.63 2.45.39 3.71a147 147 0 0 0-2.4 27.57 98.66 98.66 0 0 0 5.55 32.08c5.17 15.42 13.22 29.37 22.4 42.7 13.12 19.06 28.16 36.69 41.41 55.65a231.36 231.36 0 0 1 20 34.41c.55 1.17 1.24 2.35.52 3.71l-66.89.13c-4.37.01-8.72.06-13.15.09z"/><path d="M869.62 529.57c-5.34-13.52-13.06-25.71-21.27-37.6-11.46-16.57-24.44-32-36.22-48.32-9.71-13.46-18.42-27.48-24.9-42.87-9.28-22-10.47-44.69-5.85-67.89.2-1 .27-2.1.4-3.15.2-.2.39-.41.58-.61 10.92-3.76 21.53-8.38 32.54-11.93 13.77-4.44 27.77-7.5 42.29-8 2.76-.09 4.12.6 5 3.43a270.58 270.58 0 0 0 21.57 48.12c.69 1.23 1.31 2.5 2 3.75a45 45 0 0 1 .07 10c-.79 9.93-4.21 19.14-7.7 28.33-4.12 10.84-8.56 21.57-10.91 33-3.39 16.47-.08 32 6.73 47 6.91 15.22 16.87 28.52 26.56 42 1.11 1.53 2.11 3.13 3.16 4.7l-33.62.18a2.28 2.28 0 0 0-.43-.14zM561.91 387.94c13.34-1.58 26.44-.78 39.23 3.65 22.32 7.74 34.26 23.75 37.57 46.76 1.48 10.21 1.95 20.51 2.51 30.78.7 13 7.37 22.12 17.62 29.22s21.45 11.47 32.9 15.68c7.33 2.7 14.79 5.15 21 10 1.86 1.45 4.39 2.56 4.44 5.54l-1 .19H706.21q-38.53-.06-77.08-.09c-19 0-37.89.08-56.83.13l-.64-.25a7.22 7.22 0 0 1-3.09-2.83c-13.54-19.29-22.72-40.31-25.87-63.85a107.26 107.26 0 0 1 7.54-55.87 113.67 113.67 0 0 1 8-15.41 8.22 8.22 0 0 1 3.09-3.34 3.81 3.81 0 0 1 .58-.31z"/><path class="b" d="M561.34 388.23c-7.83 12.39-13.92 25.51-16.6 40-4.71 25.58-.33 49.87 10.36 73.28 4.55 10 10.43 19.1 16.66 28-7.7 0-15.4.1-23.1.1l-129 .07-.26-.17c-1-2-.33-4.17-.28-6.24.15-7.28-.44-14.55-.18-21.83l.24-.71c12.3-19.79 29.58-35 46.36-50.73 13.68-12.79 27.26-25.69 42.33-36.87 14.74-10.94 30.41-20 48.59-24.09 1.62-.28 3.25-.52 4.88-.81zM373.36 275.64c-4.22 5.4-8.53 10.74-12.65 16.22-11.86 15.76-17.95 33.63-19.6 53.19-1.8 21.29-.14 42.59-.52 63.88a156.67 156.67 0 0 1-3 29.62c-.23 1.11-.56 2.21-1 4-2.84-8.09-5.64-15.48-9.88-22.21-.08-.26-.17-.51-.26-.77 2-10.68 1.54-21.45.83-32.18-1.25-18.89-4.72-37.61-4.47-56.6.19-14.42 2.13-28.59 9.15-41.51 5-9.16 11.68-16.47 22.64-18.19a23.88 23.88 0 0 1 18.76 4.55z"/><path class="c" d="M922.87 42.87c-2.49 12.2-6.53 23.95-10.64 35.66-9.84 28-22.32 55-33.34 82.56-5.18 12.94-10 26-14.32 39.43-2.32-11.22-1-23.36-8.9-33.16 12-12 19.15-26.11 20.42-43l.39-1.06c5.72-8.4 7.89-18.07 9.93-27.77 2.23-10.63 3.79-21.44 8.51-31.38 5-10.58 12.78-18 24.45-20.87a27.15 27.15 0 0 1 3.5-.41z"/><path class="d" d="M375.73 277.06a3.89 3.89 0 0 0-.47.09l-1.41-1.58c8.68-11.13 17-22.52 21.71-36 18.05-51.92 10.35-99.17-25.93-141.15-.81-.94-2.06-1.64-2-3.17 1.81-1.48 2.53.27 3.4 1.18A125.66 125.66 0 0 1 401.92 152c10.08 38.23 6.08 74.75-14.48 109-3.44 5.69-7.82 10.7-11.71 16.06zM716.9 121.86c-2.44 8.07-3.7 16.4-5.15 24.91-2.69-.79-1.85-2.69-1.94-4-.52-7.17-.43-14.39-1.36-21.54l.44-.34c2.56 0 5.14-.37 7.63.51z"/><path d="M689.81 77.25a68.45 68.45 0 0 0 14.3-6.81 18.34 18.34 0 0 1 7.1-2.07l.37.36c.4 1.57-.17 3.07-.31 4.6a8.52 8.52 0 0 1-1.74 3.07c-2.81 1.74-4.22 4.86-6.74 6.9a2.73 2.73 0 0 1-.91.39 2.52 2.52 0 0 1-2.19-1.06 2.11 2.11 0 0 1 0-1c.92-2.5 3.29-3.86 4.65-5.93-3.26.42-5.86 2.25-8.2 4.54-1.14.48-1.9-.47-2.85-.76a5.75 5.75 0 0 1-1.62-.5c-.78-.42-1.67-.69-1.86-1.73z" fill="#fd0303"/><path class="d" d="M734.88 110.46a78.45 78.45 0 0 1 11 13.88c-6.77.16-11.52-4.16-16.69-7.52a.68.68 0 0 1-.25-.55c0-.21.05-.31.1-.31 2.29-1.45 3.04-4.57 5.84-5.5z"/><path class="r" d="M736.68 83.57c1.89 7.53 2.63 15.08 0 22.6a8.22 8.22 0 0 1-1.92 3.71c-1.13.14-1.63-.55-1.95-1.47-.35-1.84 1.06-3.15 1.45-4.77.08-.2.18-.41.27-.62s.08-.22.13-.32c.14-.35.13-.35-.07 0-.67 1.51-1.15 3.08-2.42 4.21a1.57 1.57 0 0 1-1 .2 2.88 2.88 0 0 1-1.75-1.84 2.64 2.64 0 0 1 .07-1c.92-2.53 2.43-4.79 3.21-7.39a21.47 21.47 0 0 0 .53-10 5 5 0 0 1 .23-1c.81-1.26 1.48-2.55 3.22-2.31z"/><path class="s" d="M718.42 68.84l1.71-.25c9-1.48 10.55-.7 14.7 7.34a1 1 0 0 1-.37.87c-.88.48-1.76 1.12-2.64 0-2.91-4.42-2.91-4.42-6.39-5.69 2.84 1.64 5.06 3.34 6.51 5.87.21 1.48-1 1.59-1.9 1.9a3.12 3.12 0 0 1-1-.13 35 35 0 0 0-10.2-6.57 3.23 3.23 0 0 1-.67-.71 2.65 2.65 0 0 1-.26-1.87 1.63 1.63 0 0 1 .51-.76z"/><path d="M711.21 68.37c3-9.89 3.72-11.3 6.81-13.5.87 4.8-.12 9.43.4 14l-.26.28c-2.3.43-4.59.71-6.75-.56z" fill="#0505fe"/><path d="M693.71 111.56c-5.08 1.45-9.69 4.12-14.78 5.86 2.76-5 7.26-8.07 11.55-11.3 2.09.77 2.4 2.87 3.36 4.49a1.63 1.63 0 0 1-.13.95z" fill="#0404fd"/><path class="r" d="M693.71 111.56l.06-.38a6.6 6.6 0 0 1 3.92-1.93 2.5 2.5 0 0 1 1 .22c2.72 3.24 5.58 6.31 9.78 7.69a2.66 2.66 0 0 1 .58.86 3.25 3.25 0 0 1-.37 3.06l-.2.2c-6.09-1.5-10.76-5.11-14.77-9.72z"/><path d="M734.64 76.32c.07-.13.13-.26.19-.39 3.24-1 6.24-2.77 10.51-3.33-2 4.73-5.65 7.26-8.51 10.42-2.2-1.76-2.63-4.09-2.19-6.7z" fill="#0505fd"/><path class="s" d="M690.6 105.61c-3.08-6.33-2.88-12.76-.57-19.26 1.11-.43 1.66.32 2.22 1.06a2.58 2.58 0 0 1 .22 1.06 25.8 25.8 0 0 0 .69 15.21 2.11 2.11 0 0 1-.14 1.08 2.13 2.13 0 0 1-2.42.85z"/><path d="M684.87 81.35a18.44 18.44 0 0 1-6.22-8.35c4 .33 7.18 2.71 10.64 4.26-.49 1.93-2.85 1.94-3.65 3.56a2 2 0 0 1-.77.53z" fill="#0707fc"/><path d="M734.64 76.32l2.19 6.7a.9.9 0 0 1-.15.55L734 85.79c-2.68-1.68-3.55-4.42-4.23-7.27.52-.83 1.84-.49 2.19-1.54h-.06z" fill="#010007"/><path d="M690.6 105.61l1.86-.92c.71-.14.82.56 1.2.88-.22-.52-.2-1.09-.41-1.61a1.36 1.36 0 0 1 .18-1 1.93 1.93 0 0 1 2.45-.55 9.12 9.12 0 0 1 2.09 7.19 10.76 10.76 0 0 1-4.2 1.57q-1.65-2.52-3.29-5.06a2.36 2.36 0 0 1 .12-.5z" fill="#030009"/><path d="M729.16 116.46v.36a28.48 28.48 0 0 1-12.26 5l-.23-.2a2.27 2.27 0 0 1 .6-3 17 17 0 0 1 3.05-.9c2.37-.39 4.21-2 6.43-2.77a3.37 3.37 0 0 1 1 .08c.69.3 1.37.56 1.41 1.43z" fill="#fd0909"/><path d="M692.12 78.63l1.36.62c-.2 2.74-1.16 5-3.59 6.56a18 18 0 0 1-5-4.46l.17-.16a14.47 14.47 0 0 1 7.06-2.56z" fill="#0404f9"/><path d="M729.16 116.46l-1.56-1.22c.7-2.94 3.6-4.36 4.81-7a.8.8 0 0 1 .89 0l1.5 1.62a3.68 3.68 0 0 1 .08.58c-1.88 2.07-3.11 4.69-5.72 6.02z" fill="#03000d"/><path d="M689.89 85.81c1.2-2.18 2.39-4.37 3.59-6.56l2.19.74a1.27 1.27 0 0 1 .17.93c-1.16 2.25-1.55 5-3.93 6.47l-1.88-1a.79.79 0 0 1-.14-.58z" fill="#060010"/><path d="M692.12 78.63c-2.25 1.15-4.41 2.56-7.08 2.56-.58-3.46 3.1-2.36 4.25-4a.84.84 0 0 1 .52 0z" fill="#05010e"/><path class="a" d="M248.6 385.76l-.73.44c-18.69 3.59-34.72 12.65-49.64 24-7.69 5.87-14.5 12.74-22.55 19.57 3.25-7.44 7.45-13.22 12-18.81 7.88-9.77 17-18.49 24.36-28.69 5.15-7.12 9.8-14.52 11.26-23.43 1.13-6.82-.42-12.88-5.25-18a1.74 1.74 0 0 0 .06-.45c17.87-12.4 34.48-26.19 43.5-46.61 8.74-19.78 9.45-40.78 1.6-60.78-7.33-18.73-22.13-30-42.51-32.81-13-1.82-25.69.22-38.15 4-3.44-16-11.82-29.21-23-40.87-.89-.94-1.69-2-2.54-2.94 13.25-.51 25.44-3.95 35.7-12.81 6.45-5.57 10.65-12.59 13.32-20.85 7.79 2.43 15.54 4.36 23.63 4.6 8.83.26 17.21-1.16 24.77-6 1.11-.71 2-1.24 3.52-.76 22.33 7 43.46 16.29 61 32.29 17.89 16.36 28.77 36.31 29.13 61 .2 13-4.21 25.1-9.81 36.72C326.94 278 311.83 299.1 296.42 320c-15.68 21.25-32.19 41.91-46.81 63.94a20.63 20.63 0 0 0-1.01 1.82z"/><path d="M885.85 374.59c0-3.35-.05-6.7-.07-10a1.27 1.27 0 0 1 .72 1.31c-.31 2.86.58 5.86-.65 8.69z" fill="#150074"/><path class="c" d="M925.64 42.82c9.64.42 17.22 7 20.55 17.67 3.09 9.91 2 19.84.4 29.83-1.56 9.65-3.86 19.3-1.71 29.18 0 .54 0 1.08-.08 1.62-7.52 22-14 44.2-17.79 67.16-2.85 17.39-3.9 34.84-1.45 52.39.16 1.17.41 2.33.55 3.5s.16 2.11.24 3.22c-1.69.19-2.43-1.06-3.4-1.78-5.69-4.25-11.17-8.88-18-11.29-12.3-4.35-24-3-34.93 4.16-1 .69-1.87 1.81-3.46 2-1.19-10.18-2.27-20.38-1.64-30.44.52-8.31 4.26-16.19 7-24.13 9.49-27.56 21.76-54 32.73-81 8-19.74 15.43-39.71 20.37-60.5a14.31 14.31 0 0 1 .62-1.59z"/><path d="M419 501.52c2 9.33 1.69 18.69.46 28.07l-14.26.21c-1-.81-.43-1.65 0-2.5a167.78 167.78 0 0 1 13.8-25.78z"/><path d="M717.64 118.68c-.92.8-.36 2.08-1 3-2.7.21-5.42.6-8-.58l-.18-3.36c2.69-1.87 5.92-1.15 8.84-1.87 1 .31 1 1.08 1 1.89a1.59 1.59 0 0 1-.66.92z" fill="#020006"/><path class="c" d="M717.67 116.29a21.89 21.89 0 0 1-9.2 1.43 2.55 2.55 0 0 0-.38-.26c-2.11-2.81-.7-6.52-2.48-9.59-2.62-.5-4.41 2.67-7.15 1.88a3.94 3.94 0 0 0-.49-.14q-1.17-3.69-2.35-7.39v-.5c1.41-2.5 4.48-3.34 6-5.82-.82-1.94-3.09-2.21-4.08-3.83a2.84 2.84 0 0 1-.29-1 11 11 0 0 1 4.71-7.65l.38-.14c4.92.76 4.93.77 5.93-4.52a4.88 4.88 0 0 1 .91-2.58c-.16-1.18.92-1.62 1.44-2.4 1.83-3.06 4.66-3.13 7.7-2.55l.25.27c1.82 3.67.19 7.66 1.1 11.6 3.39-1.32 5.79-4.57 9.64-4.71a2.55 2.55 0 0 1 .55.11l4.14 7.29a3 3 0 0 1-.13.54c-1.65 3.6-5 5.52-7.82 8a41.15 41.15 0 0 0-3.27 2.67c2.36 2.68 5.47 4.57 7.12 7.78v.49c-.9 3.52-3.37 5.59-6.49 7.06a5.31 5.31 0 0 1-3.49-2.12c-1 1.68-.33 3.68-1 5.42a1.14 1.14 0 0 1-1.25.66z"/><path d="M691.91 87.39c1.15-2.39 1.91-5 3.83-7 1.86-.65 3.14.21 4.19 1.64a3 3 0 0 1 .05.43 17.3 17.3 0 0 1-4.21 7.58c-2 .51-2.93-.78-3.72-2.28-.05-.1-.05-.23-.14-.37z" fill="#0202fb"/><path d="M709.11 76.2c.54 3.36-.81 6.35-1.6 9.53a19 19 0 0 1-5.24-2.43c2.05-2.59 3.54-5.71 6.84-7.1z" fill="#f9f6fb"/><path d="M699.93 82.07l-4.19-1.64a2.24 2.24 0 0 0-.07-.44c2.36-3.88 6.3-4.84 10.83-5.72z" fill="#fdf6f7"/><path d="M718.25 71.25c-2.48 1.1-5.53.52-7.7 2.55a10.36 10.36 0 0 1 .86-5.24c2.28-.25 4.57-.48 6.75.56z" fill="#040006"/><path d="M695.48 89.9c1.43-2.51 2.44-5.27 4.5-7.4l1.91.94-4.38 7.82c-.84.61-1.42.12-2-.47a1.06 1.06 0 0 1-.03-.89z" fill="#02000a"/><path d="M729.9 104.75l-8.61-7.81a136.94 136.94 0 0 0 12.6-10.61c1.96 6.85-.1 12.83-3.99 18.42z" fill="#fdfcfd"/><path d="M723.48 112c2.73-1.69 4.33-4.44 6.44-6.72l1.52 1.54c-.24 3.63-2.89 5.29-5.6 6.93a3 3 0 0 1-2.39-.85.67.67 0 0 1 .03-.9z" fill="#01000a"/><path d="M725.58 113.62a23.76 23.76 0 0 0 5.86-6.84h.38a1.48 1.48 0 0 1 1.11 1.61c-1 2.87-3.36 4.75-5.33 6.89a2.1 2.1 0 0 1-.5 0 2 2 0 0 1-1.52-.82.78.78 0 0 1 0-.84z" fill="#0202ee"/><path d="M732.93 108.35l-1.11-1.61 2.44-4.73c1.35 0 .77.81.64 1.44-.53 1.6-1.06 3.21-1.6 4.81a.81.81 0 0 0-.37.09z" fill="#fae6ea"/><path d="M734.9 103.45l-.64-1.44.84-2.13a3.08 3.08 0 0 1-.2 3.57z" fill="#fea6a6"/><path d="M729.24 78.41l-10.74 6.73V71.52a19.71 19.71 0 0 1 10.74 6.89z" fill="#fcfbfd"/><path d="M732 77c-2.86-1.74-4.94-4.52-8.35-6 4.93-1 7.08.7 8.29 6z" fill="#feefef"/><path d="M698.46 109.75l7.89-3.77a55.31 55.31 0 0 1 1.74 11.48 13.48 13.48 0 0 1-9.63-7.71z" fill="#fbfafd"/><path d="M695.48 89.9a3 3 0 0 0 .11.52 96.35 96.35 0 0 1-1.91 12.86.93.93 0 0 0-.15.56.73.73 0 0 1-1 .39c-2.17-5.42-2.63-10.89-.44-16.43z" fill="#fdf8f9"/><path d="M692.49 104.23l1-.39a4.51 4.51 0 0 1 .51 3.83l-1.58-3z" fill="#0000d2"/><path d="M693.68 103.28a21.69 21.69 0 0 1 1.91-12.86l1.92.84a3.55 3.55 0 0 1 .09.47c.32 3.49-1 6.71-1.7 10-.1.15-.19.31-.28.47z" fill="#fc0707"/><path d="M725.54 114l1.56 1.31a14.64 14.64 0 0 1-6.39 3.17c-.68.25-1-.1-1.07-.72a8.84 8.84 0 0 1 5.9-3.76z" fill="#fce8eb"/><path d="M719.92 117.77l.79.67a2.51 2.51 0 0 1-3.07.25v-.16c.6-.78 1.15-1.61 2.28-.76z" fill="#fea3a3"/><path d="M719.92 117.77l-2.24.76v-2.24l.58-.52c1.39-1.67 2.74-3.43 5.24-3.38l2.09 1.22v.35z" fill="#fa0707"/><path d="M695.9 101.75a16.87 16.87 0 0 1 1.7-10l6.33 4z" fill="#fbf8fb"/><path d="M723.49 112.39l-5.24 3.38a18.26 18.26 0 0 1 1.1-6.66l4.13 2.85a1.25 1.25 0 0 0 .01.43z" fill="#f4f0f9"/></svg>
