<svg xmlns="http://www.w3.org/2000/svg" viewBox="0 0 875.14 847.59"><defs><style>.cls-6{fill:#00f}.cls-3{fill:red}.cls-4{mix-blend-mode:darken}</style></defs><g style="isolation:isolate"><g id="Layer_2" data-name="Layer 2"><g id="Layer_1-2" data-name="Layer 1"><path d="M870.82 629.9l-35 4.43-1.05 4.85c-26.68-25.82-58.29-47.4-90.55-65.9-27.94-16-57.54-30.57-89.47-34.78-77-10.14-144.71 50.78-222.31 52.78-29.4.76-63.76-15.58-93.11-13.57-69.56 4.78-132 62-142.78 130.93-7.63 48.81 9.22 97.71 39.24 137.6l635 .26z" transform="translate(0 -.52)" stroke="#00f" stroke-miterlimit="10" fill="#00f"/><path class="cls-3" d="M703.55 653.24A253.58 253.58 0 0 1 643 545c-11.48-42.6-10.58-86.69-.91-129.55 20.05-88.87 70.82-167.23 90.67-256.2 10.61-47.52 12.27-97.74-5.57-143.76-.69-1.78-3.59-1-2.89.8 34.26 88.4-2.66 183.22-37.41 265.23-17.69 41.75-35.84 83.68-46.47 127.91-10 41.44-12.27 84.27-2.87 126a256.88 256.88 0 0 0 63.93 120c1.33 1.41 3.45-.72 2.12-2.12z" transform="translate(0 -.52)"/><g class="cls-4"><path class="cls-3" d="M1.45 846.24c13.74-32 33.48-61.08 59.1-84.76 62.71-58 161.38-77.46 237.52-38.81 31.8 16.15 58.3 40.87 84 65.59 18 17.3 39.6 38.52 55.75 58z" transform="translate(0 -.52)"/><path class="cls-3" d="M2.74 847C17.29 813.45 38.4 782.67 66 758.56A223.27 223.27 0 0 1 153.59 712c31.61-8.65 65.27-10.51 97.46-4 35.7 7.23 66.64 25.42 94.3 48.66 16.21 13.62 31.43 28.42 46.56 43.21 15.56 15.2 30.91 30.71 44.85 47.42l1.06-2.56H19.39c-5.48 0-11.74-.85-17.17 0a5 5 0 0 1-.77 0 1.5 1.5 0 0 0 0 3h418.43c5.48 0 11.73.85 17.17 0a5 5 0 0 1 .77 0 1.52 1.52 0 0 0 1.06-2.56c-12.82-15.37-26.84-29.71-41.1-43.74-14-13.82-28.18-27.58-43-40.59-27.43-24.1-57.89-44.47-93.63-53.6-64-16.36-134.73.67-186.72 40.58C41.54 773.1 16.59 807.57.15 845.48c-.76 1.76 1.85 3.29 2.59 1.52z" transform="translate(0 -.52)"/></g><g class="cls-4"><path class="cls-3" d="M870.82 2c-44.66 85.32-82.41 174.09-111.65 265.84-2.86 9-5.7 18-8.4 27-16.78 55.92-28.35 116.76-9.43 172 19.21 56 71.47 98.59 129.48 108.9z" transform="translate(0 -.52)"/><path class="cls-3" d="M869.52 1.28C825.31 85.84 787.73 173.9 758.58 264.8c-14.17 44.2-27.79 89.49-28.48 136.3-.6 41.19 10.33 81.48 36.29 113.91a174.77 174.77 0 0 0 104 62.2 1.53 1.53 0 0 0 1.9-1.45V25.55c0-7.37.73-15.17 0-22.51v-1a1.5 1.5 0 0 0-3 0V567c0 2.21-.66 5.64 0 7.76a4.26 4.26 0 0 1 0 1l1.9-1.45a172 172 0 0 1-95.08-52.55c-28.28-30.7-42-70.15-43-111.61C732 364 744.57 319 758.34 275.47q20.91-66.18 47.27-130.42c19.95-48.42 42.24-95.86 66.5-142.26.89-1.71-1.69-3.23-2.59-1.51z" transform="translate(0 -.52)"/></g><path d="M870.82 641.72c-34.8 2.42-70.24-1.47-103.35-12.67-29.19-9.87-52.85-28.12-68.28-54.94a149.7 149.7 0 0 1-16.82-45.85c-1.12-5.68-9.79-3.28-8.68 2.39 5.78 29.35 19.57 57.73 41.5 78.39 25 23.6 59.69 33.9 93 39a282.3 282.3 0 0 0 62.63 2.64c5.74-.4 5.79-9.4 0-9z" transform="translate(0 -.52)" fill="#fff"/><g class="cls-4"><path class="cls-6" d="M870.82 334.37q-6.89-2.76-14-5c-51.42-15.87-114.3-4.13-146.06 39.31-11.1 15.18-17.82 33.12-23 51.21-9.86 34.55-14.49 71.23-7.73 106.52s25.88 69.1 56 88.74c13.65 8.9 29.11 14.7 44.82 19a273.09 273.09 0 0 0 90 9.15z" transform="translate(0 -.52)"/><path class="cls-6" d="M871.22 332.92c-32.39-12.76-68.38-15.76-102-5.71a120.45 120.45 0 0 0-42.53 22.37c-14.33 11.9-24.52 27.43-31.68 44.52-29.35 70-32.13 170.1 35.76 219.33 18.86 13.68 41.77 21 64.32 25.83a278 278 0 0 0 75.69 5.6 1.53 1.53 0 0 0 1.5-1.5v-309a1.5 1.5 0 0 0-3 0v309l1.5-1.5a275.22 275.22 0 0 1-65.61-3.66c-20.11-3.6-40.51-9.06-58.68-18.59-32.62-17.1-54.11-49.34-63-84.52-10.42-41.06-4.14-85.15 8.81-124.9 6-18.46 14.45-36.38 28-50.53a110.34 110.34 0 0 1 39.88-26.17c35.54-13.79 75.13-11.51 110.24 2.32 1.8.71 2.58-2.19.8-2.89z" transform="translate(0 -.52)"/></g></g></g></g></svg>
