<svg xmlns="http://www.w3.org/2000/svg" viewBox="0 0 427.72 723.93"><defs><style>.cls-2{fill:red}.cls-6{fill:#00f}.cls-5{fill:#fff}</style></defs><g style="isolation:isolate"><g id="Layer_2" data-name="Layer 2"><g id="Layer_1-2" data-name="Layer 1"><path class="cls-2" d="M78.11 457.92c-32.77-18.54-73.83 3.67-76 41.26C.15 534 8.82 569.87 25.81 600.55c26.94 48.68 72.6 85.15 123 108.78a140.91 140.91 0 0 0 62.95 13.12 92.13 92.13 0 0 0 83.71-60.06c12.91-35.07 5.32-76.12-16.54-106.44s-56.71-50.1-93.45-57c-23.77-4.44-49.16-4.07-70.46-15.52-13-7-23.53-18-36.38-25.28z"/><path class="cls-2" d="M78.87 456.63a53.16 53.16 0 0 0-62.32 7.85c-20.69 19.71-17.86 51.24-13.28 77 11.11 62.43 53.32 113.38 105.42 147.31 26.89 17.51 56.21 32.25 88.66 34.78 27.88 2.18 55-5.54 75.69-24.86 45-42 35.8-114.91-4-157-20.17-21.33-47.15-35.82-75.61-42.57-16.37-3.88-33.24-4.64-49.74-7.77a100.8 100.8 0 0 1-24.91-7.65c-7.67-3.67-14.47-8.79-21.17-14-6.06-4.68-12.11-9.37-18.78-13.15a1.5 1.5 0 0 0-1.52 2.59c13.06 7.4 23.64 18.45 36.89 25.56 12.89 6.91 27.38 9.61 41.73 11.56 15.14 2.06 30.29 3.59 45 7.92a155.47 155.47 0 0 1 39.39 17.8c24.84 15.74 44.52 39 53.84 67.11 9.15 27.57 8.5 59.18-5.71 85a91.44 91.44 0 0 1-62.09 45.27c-31.45 6.13-63.35-3.79-90.94-18.35-51.29-27.08-97.51-69-119-123.92a190.86 190.86 0 0 1-11.76-46.47c-1.69-14-3.12-30.11 1.26-43.79 7.19-22.45 30.64-36.85 53.91-33.62a51 51 0 0 1 17.52 6c1.7.92 3.21-1.67 1.52-2.6zM137.42 255.89c-22.48-42-45.65-86.34-41.89-135.48a1.5 1.5 0 0 0-2.25-1.29c-11.81 8.07-18.65 21.31-20.59 35.3-2.14 15.53 2.24 31.06 8.55 45.14a271.08 271.08 0 0 0 26.81 45.89A183.38 183.38 0 0 0 124 265c1.82 1.93 3.8 5 6.45 5.41 3.24.53 8.28-2.3 11.13-3.74a1.53 1.53 0 0 0 .54-2.05l-4.68-8.73c-.91-1.7-3.5-.19-2.59 1.52q2.34 4.35 4.67 8.72l.54-2.05c-3 1.54-7.78 4.23-10.84 2s-5.48-5.68-7.85-8.42a199.18 199.18 0 0 1-13.76-18.07 287.25 287.25 0 0 1-22.65-39.11c-11.76-25.06-16.52-60.72 9.85-78.74l-2.26-1.3c-3.8 49.65 19.59 94.57 42.3 137 .9 1.67 3.49.16 2.57-1.55z"/><path class="cls-2" d="M130 269c-14.91-14.29-26.57-31.91-36.87-49.81-9.64-16.75-18.59-34.69-19.48-54-.79-16.89 6.12-35.06 19.78-44.38a36.51 36.51 0 0 1 6.27-3.42c19-8 41.6 1.63 55.62 16.78 27.69 29.9 28.51 79.91 4.18 112.61-6 8-11.23 14.62-18.72 18.64A34.37 34.37 0 0 1 130 269z"/><path class="cls-2" d="M131.09 267.91c-19.92-19.33-35.94-44.59-47.26-69.91-10.31-23-14.29-53.68 6.28-72.67 20.77-19.18 51.35-5.89 67 13 14.83 17.94 20.46 42.31 17.74 65.17a89.86 89.86 0 0 1-12.6 36.55c-7.71 12.45-17.52 24.58-32.6 27.4-1.89.36-1.09 3.25.8 2.89 13.81-2.58 22.41-12 30.4-22.91a90.79 90.79 0 0 0 15.27-33.72c5.4-23.95 1.73-50.39-12-71C150.8 123 124.39 106 100 115.64c-25.51 10.08-31.51 41.51-25.42 65.42 4.24 16.63 13 31.92 21.76 46.5 9.26 15.33 19.71 30 32.6 42.47 1.42 1.34 3.54-.78 2.15-2.12z"/><path d="M139.72 270l-6.59-12.32c-16.22-30.29-32.64-61.13-39.5-94.8" fill="none" stroke="#fff" stroke-linecap="square" stroke-linejoin="bevel" stroke-width="3"/><path class="cls-2" d="M188.84 533.56c22.35-14 34-39.21 36.43-64.82 3.08-31.92-8.9-62.89-22.88-90.95-16.68-33.47-35.1-66.13-52.75-99.09-16.88-31.52-35.49-62.93-46.32-97.19-12.12-38.3-12.94-83.59 12.86-116.69 1.17-1.5-.94-3.64-2.12-2.12-20 25.73-25 59.48-20.35 91.14 5 34.1 20.84 65.49 36.86 95.58q26.6 50 53.45 99.84c16.51 30.83 34.65 62.73 38.22 98.18 3.13 31.13-7.22 66.22-34.92 83.53-1.63 1-.13 3.62 1.52 2.59z"/><path style="mix-blend-mode:darken" fill="#00f" d="M308.73 316.6h48l-169 260h-48l169-260z"/><path class="cls-5" d="M301 56.45c0 5.6-8.65 10.15-19.32 10.15s-19.32-4.55-19.32-10.15c0 5.6-8.65 10.15-19.32 10.15s-19.32-4.55-19.32-10.15c0 5.6-8.65 10.15-19.32 10.15S185 62.05 185 56.45c0 5.6-8.66 10.15-19.33 10.15s-19.32-4.55-19.32-10.15"/><path class="cls-6" d="M299.45 56.45c-1 12.12-34.66 12.09-35.64 0a1.5 1.5 0 0 0-3 0c-1 12.12-34.66 12.09-35.64 0a1.5 1.5 0 0 0-3 0c-1 12.12-34.67 12.09-35.64 0a1.5 1.5 0 0 0-3 0c-1 12.12-34.67 12.09-35.65 0-.15-1.91-3.15-1.93-3 0 .75 9.26 13.43 11.66 20.82 11.65s20.07-2.37 20.83-11.65h-3c.75 9.26 13.42 11.66 20.82 11.65s20.07-2.37 20.82-11.65h-3c.75 9.26 13.42 11.66 20.82 11.65s20.07-2.37 20.82-11.65h-3c.75 9.26 13.43 11.66 20.82 11.65s20.07-2.37 20.82-11.65c.16-1.93-2.84-1.92-3 0z"/><path class="cls-5" d="M310.78 47.28c0 5.6-8.65 10.15-19.32 10.15s-19.32-4.55-19.32-10.15c0 5.6-8.65 10.15-19.33 10.15s-19.32-4.55-19.32-10.15c0 5.6-8.65 10.15-19.32 10.15s-19.32-4.55-19.32-10.15c0 5.6-8.65 10.15-19.32 10.15s-19.32-4.55-19.32-10.15"/><path class="cls-6" d="M309.28 47.28c-1 12.12-34.66 12.09-35.64 0a1.5 1.5 0 0 0-3 0c-1 12.12-34.67 12.09-35.65 0a1.5 1.5 0 0 0-3 0c-1 12.12-34.66 12.09-35.64 0a1.5 1.5 0 0 0-3 0c-1 12.12-34.66 12.09-35.64 0-.16-1.91-3.16-1.93-3 0 .75 9.26 13.42 11.67 20.82 11.65s20.07-2.37 20.82-11.65h-3c.75 9.26 13.43 11.67 20.82 11.65s20.07-2.37 20.83-11.65h-3c.75 9.26 13.43 11.67 20.82 11.65s20.07-2.37 20.83-11.65h-3c.75 9.26 13.42 11.67 20.82 11.65s20.07-2.37 20.82-11.65c.16-1.93-2.85-1.92-3 0z"/><path class="cls-5" d="M321.91 38.11c0 5.6-8.65 10.15-19.32 10.15s-19.32-4.55-19.32-10.15c0 5.6-8.65 10.15-19.32 10.15s-19.32-4.55-19.32-10.15c0 5.6-8.65 10.15-19.32 10.15S206 43.71 206 38.11c0 5.6-8.65 10.15-19.32 10.15s-19.32-4.55-19.32-10.15"/><path class="cls-6" d="M320.41 38.11c-1 12.12-34.66 12.1-35.64 0a1.5 1.5 0 0 0-3 0c-1 12.12-34.66 12.1-35.64 0a1.5 1.5 0 0 0-3 0c-1 12.12-34.67 12.1-35.65 0a1.5 1.5 0 0 0-3 0c-1 12.12-34.66 12.1-35.64 0-.15-1.91-3.16-1.93-3 0 .75 9.26 13.43 11.67 20.82 11.65s20.07-2.37 20.82-11.65h-3c.75 9.26 13.43 11.67 20.83 11.65s20.07-2.37 20.82-11.65h-3c.75 9.26 13.42 11.67 20.82 11.65s20.05-2.37 20.82-11.65h-3c.75 9.26 13.43 11.67 20.82 11.65s20.07-2.37 20.82-11.65c.16-1.93-2.84-1.92-3 0z"/><path class="cls-5" d="M329.77 28.94c0 5.6-8.65 10.15-19.32 10.15s-19.32-4.55-19.32-10.15c0 5.6-8.65 10.15-19.32 10.15s-19.32-4.55-19.32-10.15c0 5.6-8.65 10.15-19.32 10.15s-19.33-4.55-19.33-10.15c0 5.6-8.65 10.15-19.32 10.15s-19.32-4.55-19.32-10.15"/><path class="cls-6" d="M328.27 28.94c-1 12.12-34.66 12.1-35.64 0a1.5 1.5 0 0 0-3 0c-1 12.12-34.66 12.1-35.64 0a1.5 1.5 0 0 0-3 0c-1 12.12-34.67 12.1-35.65 0a1.5 1.5 0 0 0-3 0c-1 12.12-34.66 12.1-35.64 0-.15-1.91-3.16-1.93-3 0 .75 9.26 13.43 11.67 20.82 11.65s20.07-2.37 20.82-11.65h-3c.75 9.26 13.43 11.67 20.83 11.65s20.07-2.37 20.83-11.65h-3c.75 9.26 13.42 11.67 20.82 11.65s20.07-2.37 20.82-11.65h-3c.75 9.26 13.43 11.67 20.82 11.65s20.07-2.37 20.82-11.65c.16-1.93-2.84-1.92-3 0z"/><path class="cls-5" d="M339.6 19.77c0 5.61-8.65 10.15-19.32 10.15S301 25.38 301 19.77c0 5.61-8.65 10.15-19.32 10.15s-19.32-4.54-19.32-10.15c0 5.61-8.65 10.15-19.32 10.15s-19.32-4.54-19.32-10.15c0 5.61-8.65 10.15-19.32 10.15S185 25.38 185 19.77"/><path class="cls-6" d="M338.1 19.77c-1 12.12-34.67 12.1-35.65 0a1.5 1.5 0 0 0-3 0c-1 12.12-34.66 12.1-35.64 0a1.5 1.5 0 0 0-3 0c-1 12.12-34.66 12.1-35.64 0a1.5 1.5 0 0 0-3 0c-1 12.12-34.67 12.1-35.64 0-.16-1.91-3.16-1.93-3 0 .75 9.23 13.47 11.67 20.82 11.65s20.07-2.36 20.82-11.65h-3c.75 9.23 13.42 11.67 20.83 11.65s20.07-2.36 20.82-11.65h-3c.75 9.26 13.43 11.67 20.82 11.65s20.07-2.36 20.82-11.65h-3c.76 9.26 13.43 11.67 20.83 11.65s20.07-2.36 20.82-11.65c.15-1.93-2.85-1.92-3 0z"/><path class="cls-5" d="M196.16 10.6c0 5.61 8.65 10.15 19.32 10.15s19.32-4.54 19.32-10.15c0 5.61 8.65 10.15 19.32 10.15s19.33-4.54 19.33-10.15c0 5.61 8.65 10.15 19.32 10.15s19.32-4.54 19.32-10.15c0 5.61 8.65 10.15 19.32 10.15s19.32-4.54 19.32-10.15"/><path class="cls-6" d="M194.66 10.6c.75 9.26 13.43 11.67 20.82 11.65s20.07-2.36 20.82-11.65h-3c.75 9.26 13.43 11.67 20.82 11.65S274.19 19.89 275 10.6h-3c.75 9.26 13.42 11.67 20.82 11.65s20.07-2.36 20.82-11.65h-3c.75 9.26 13.43 11.67 20.82 11.65s20.07-2.36 20.82-11.65c.16-1.93-2.84-1.92-3 0-1 12.12-34.66 12.1-35.64 0a1.5 1.5 0 0 0-3 0c-1 12.12-34.66 12.1-35.64 0a1.5 1.5 0 0 0-3 0c-1 12.12-34.67 12.1-35.65 0a1.5 1.5 0 0 0-3 0c-1 12.12-34.66 12.1-35.64 0-.16-1.91-3.16-1.93-3 0z"/><path class="cls-2" d="M361.34 70.88a175.92 175.92 0 0 1 44.13 51.66c10.4 18.52 19.88 41.32 18.91 63-.5 11.12-5.08 22.48-15.55 27.62a29.56 29.56 0 0 1-28.91-1.87c-10-6.83-13.07-20.11-14.18-31.46s-.07-22.65 1.36-33.87c3.32-26.06 7-51.42-3.25-76.52-.72-1.76-3.63-1-2.89.8 10.64 26 6 52 2.74 78.92-2.4 20.18-4.79 51.57 14.7 64.72 16 10.8 38.7 4.07 46-13.72 8.54-20.86-1-47.06-9.79-66.27a177.54 177.54 0 0 0-51.13-65.11c-1.48-1.21-3.65.9-2.14 2.1z"/><path class="cls-2" d="M372.51 78.42q-4.9-4.52-10.11-8.6c17.33 41.11-3.4 76.51 2.45 114.92 1 6.59 2.75 13.27 6.13 18.94 11.5 6.51 27.78 4.73 36.65-5.36 10.45-11.88 9.44-29.88 5.64-45.24-6.78-27.47-21.33-53.58-40.76-74.66z"/><path class="cls-2" d="M373.57 77.36q-4.92-4.47-10.11-8.6c-1-.8-3.14-.11-2.5 1.46 9.43 23 7.06 46.48 3.83 70.52-2.65 19.65-5.58 42.21 3.34 60.78 3.47 7.24 14.5 8.09 21.68 7.27a29.57 29.57 0 0 0 20.94-12c11.36-15.92 6.34-38.24.75-55.32a177.58 177.58 0 0 0-37.93-64.1c-1.31-1.43-3.42.7-2.12 2.12A176.24 176.24 0 0 1 404.86 132c6.7 16.58 13.51 37.59 7.38 55.3a26.89 26.89 0 0 1-20.31 18.12 30.36 30.36 0 0 1-14.24-.58c-2.29-.65-4.75-1.37-6.22-3.37-1.8-2.45-2.66-6-3.47-9-5.23-18.86-1.94-38.81.6-57.82 3-22.26 3.92-44.11-4.75-65.3l-2.51 1.46q5.21 4.13 10.11 8.6c1.42 1.37 3.55-.74 2.12-2.05z"/><path class="cls-5" d="M360.56 1.45c0 5.6-8.65 10.15-19.32 10.15s-19.33-4.55-19.33-10.15c0 5.6-8.65 10.15-19.32 10.15s-19.32-4.55-19.32-10.15c0 5.6-8.65 10.15-19.32 10.15s-19.32-4.55-19.32-10.15c0 5.6-8.65 10.15-19.32 10.15S206 7.05 206 1.45"/><path class="cls-6" d="M359.06 1.45c-1 12.12-34.67 12.09-35.65 0a1.5 1.5 0 0 0-3 0c-1 12.12-34.66 12.09-35.64 0a1.5 1.5 0 0 0-3 0c-1 12.12-34.66 12.09-35.64 0a1.5 1.5 0 0 0-3 0c-1 12.12-34.67 12.09-35.65 0-.15-1.91-3.15-1.93-3 0 .75 9.26 13.43 11.66 20.83 11.65s20.07-2.37 20.82-11.65h-3c.75 9.26 13.42 11.66 20.82 11.65S284 10.73 284.77 1.45h-3c.75 9.26 13.43 11.66 20.82 11.65s20.07-2.37 20.82-11.65h-3c.75 9.26 13.43 11.66 20.83 11.65s20.07-2.37 20.82-11.65c.15-1.93-2.85-1.92-3 0zM26.94 169.8c-1 24.39 7.71 47.59 18.13 69.23 5.52 11.44 11.61 22.6 17.51 33.85s11.28 22.9 16.75 34.47c11.61 24.52 24.56 48.46 34.51 73.74 9.07 23 14.86 47.46 18.45 72 4.27 29.12.91 57.34-12.23 83.88-.85 1.73 1.73 3.25 2.59 1.52a137.1 137.1 0 0 0 14.14-72.17 304.82 304.82 0 0 0-14-69.2c-8.17-25.22-20.17-49-31.85-72.67C85 312.31 79.45 300 73.58 287.9c-5.7-11.79-12-23.27-18.09-34.88-13.43-25.75-26.79-53.45-25.55-83.22.08-1.93-2.92-1.93-3 0z"/></g></g></g></svg>
